<?xml version="1.0" encoding="UTF-8"?>
<svg id="Layer_1" data-name="Layer 1" xmlns="http://www.w3.org/2000/svg" viewBox="0 0 1000 1000">
  <path
    d="M27.07,667.04c-2.82-1.56-5.65-3.12-8.47-4.68.22-.39.44-.79.66-1.18,2.8,1.6,5.61,3.19,8.41,4.79-.2.36-.4.72-.6,1.07Z"
    style="fill: #fff;" />
  <path
    d="M415.92,349.95c-4.76,5.5-9.68,10.86-14.79,16.11-1.64-.32-3.28-.49-4.92-.49-5.87,0-11.42,2.03-16.46,6.08-1.94,1.55-3.68,2.33-5.13,2.33-2.03,0-4.18-1.64-5.62-3-8.07-7.63-15.99-16.53-23.6-26.4-5.41-7-11.95-14.12-20.5-15.83,13.06-79.53,82.1-140.21,165.33-140.21,90.7,0,164.55,72.05,167.48,162.03-8.02-5.78-14.79-11.09-20.94-16.41-4.48-3.86-9.8-7.97-16.2-7.97-9.62,0-14.95,8.92-17.82,13.71-2.45,4.14-4.85,8.34-7.19,12.44-2.4,4.25-4.9,8.67-7.42,12.85-.39.62-.95,1.55-1.55,2.52-.44-.44-.92-.97-1.46-1.55-14.1-15.32-28.18-31.34-41.77-46.83-6.98-7.93-13.94-15.86-20.94-23.74-3.21-3.63-7-7.77-11.42-11.23-4.83-3.74-9.92-5.66-15.14-5.66-6.45,0-12.57,2.89-18.19,8.58-6.61,6.66-13.45,13.34-20.09,19.76-13.98,13.57-28.41,27.6-41.67,42.92Z"
    style="fill: #fff;" />
  <g>
    <path
      d="M897.98,482.39c-20.04-8.34-40.31-16.57-54.5-37.24-7.72-11.26-16.09-17.57-28.61-16.78-17.75,1.09-31.16-10.1-43.18-24.96-14.42-17.87-29.42-35.04-44.1-52.61-4.51-5.39-9.78-12.2-15.81-7.56-4.04,3.12-5.69,11.28-7.74,17.5-1.04,3.14-.67,7-.83,10.56-.28,6.43-1.55,10.96-8.34,9.96-7.12-1.04-9.59,6.08-13.11,11.9-5.89,9.85-12.62,18.95-20.71,27.25,3.81-14.28,13.82-26.19,9.25-38.11-13.48-9.29-24.41-16.41-35.02-24.2-12.99-9.57-16.02-9.08-22.91,7.67-5.15,12.53-12.41,24.55-9.5,40.91-1.78-.65-3.21-.76-4.25-1.59-32.45-25.26-65.94-48.79-91.37-85.27-3.67-5.27-9.87-7.95-14.89-11.83-2.5,6.8-6.47,13.34-7.23,20.41-2.36,21.66-7.95,40.29-23.11,54.06-9.22,8.39-10.96,21.57-8.81,34.97,1.85,11.56,18.21,17.59,29.08,11.21,11.51-6.73,23.09-13.31,34.62-19.95.69,1.13,1.36,2.29,2.03,3.42-10.7,11.79-21.15,23.97-32.22,35.2-7.86,7.97-16.99,14.08-24.75,22.12-6.43,6.66-13.06,9.22-21.5,9.27-45.53.23-91.09,1.02-136.62,1.69-2.98.02-5.94.07-8.92.12-2.57.05-5.11.07-7.65.09-.65,0-1.32.02-1.96.02-.02-.05-.05-.12-.07-.16l-1.25-3.05s-.02-.02-.02-.05c18.07-16.11,34.99-34.74,54.5-47.75,16.18-10.79,31.67-22.44,46.39-35.36,6.47-5.64,12.81-11.56,18.98-17.75,6.54-6.52,12.9-13.34,19.09-20.5,19.25-22.28,40.84-41.54,61.32-62.25,6.7-6.77,13.73-7.86,21.06-2.1,3.67,2.87,7,6.45,10.22,10.05,20.94,23.58,41.54,47.57,62.8,70.7,9.36,10.17,10.61,9.38,17.73-2.47,5.02-8.32,9.66-16.97,14.65-25.31,6.93-11.58,10.54-11.67,20.04-3.47,9.29,8.04,19.09,15.3,29.01,22.19,6.31,4.37,12.16,2.94,17.24-4.11,8.51-11.76,17.4-23.09,26.26-34.44,8.53-10.93,14.56-11.65,23.25-1.29,19.72,23.53,39.15,47.41,58.41,71.49,10.42,13.06,21.7,22.88,37.56,22.24,9.11-.35,16.9,4.23,22.24,13.06,12.94,21.36,30.7,35.16,49.26,47.85,1.5,1.04,2.96,2.22,4.02,4.25Z"
      style="fill: #fff;" />
    <path
      d="M413.01,382.12c-9.96-3.7-14.31,2.22-17.68,12.16-2.84,8.37-7.42,15.88-13.04,23.14.83-7.49,1.66-14.95,2.57-23.16.07-.62.14-1.25.21-1.9-2.7.02-4.99-.18-7.21.14-9.87,1.43-18.63-1.64-26.33-9.31-7.49-7.51-14.89-15.14-22.47-22.51-2.63-2.57-5.66-4.53-10.26-8.18-1.57,9.57-3.37,16.97-3.86,24.52-1.22,18.65-11.47,47.59-22.33,61.16-8.17,10.22-17.35,19.56-25.39,29.88,6.87-16.68,13.75-33.36,20.62-50.04,2.12-5.13,2.18-10.25,1.82-15.69-.5-7.56-1-15.13-1.5-22.69-.35-5.32-.64-11.76,2.85-16.21,4.3-5.47,9.45-10.72,14.18-15.89,13.13-14.4,20.92-12.85,32.89,2.68,7.58,9.87,15.81,19.16,24.55,27.46,6.86,6.52,14.68,7.74,22.88,1.18,6.1-4.85,12.23-4.92,18.33-2.36,3.07,1.29,6.13,3.26,9.18,5.62Z"
      style="fill: #fff;" />
  </g>
  <path
    d="M550.29,476.78c27.43-7.7,41.93-31.19,52.53-59.78,1.47-3.95,4.76-7.18,7.69-9.99,10.88-10.43,14.6-10.01,23.34,2.79,6.76,9.89,12.69,20.67,19.86,30.08,8.52,11.19,18,21.31,27.01,31.98,2.41,2.85,4.59,5.97,7.76,10.12-8.32,3.15-13.95.94-18.56-5.32-10.59-14.37-21.29-28.63-31.48-43.41-11.05-16.02-18.79-15.87-27.46,2.27-5.86,12.26-10.41,25.46-16.28,37.72-1.64,3.42-5.77,6.82-8.96,7.1-11.35.99-22.78.64-34.18.79-.42-1.45-.85-2.9-1.27-4.35Z"
    style="fill: #fff;" />
  <path
    d="M813.84,329.28c-1.76-.27-3.54-.53-5.21-1.09-1.73-.58-3.36-1.45-5.15-2.25.07,1.97.39,3.55,2.02,4.83,1.78,1.4,3.72,2.91,4.78,4.82,1.72,3.1,4,5.04,7.38,5.88.72.18,1.57.68,1.95,1.29,1.12,1.81,2.67,2.61,4.73,2.53,1.37-.05,2,.75,2.52,1.96-2.83.42-5.46.19-7.8-1.34-1.49-.98-2.78-2.25-4.21-3.32-1.72-1.29-3.36-2.84-6.29-2.45,1.49,1.11,2.6,1.95,3.73,2.79-2-.54-4.02-1.08-6.04-1.62-.1.14-.2.29-.3.43.68.71,1.35,1.42,2.05,2.11.92.9,2.22,1.61,2.71,2.7.89,1.99,2.25,2.79,4.28,2.74,1.19-.03,1.77.61,2.4,1.57.91,1.37,2.08,2.58,3.23,3.78.75.78,1.75,1.34,2.46,2.15,1.04,1.18,2.25,1.55,3.77,1.41.95-.09,1.92.08,2.88.14-.78.42-1.58.39-2.27.63-2.1.72-3.9.55-5.44-1.23-.35-.41-1.02-.55-1.54-.82-.05.13-.11.26-.16.4.46.33.92.66,1.39.99-.83.05-1.6-.03-2.3-.28-2.65-.96-5.25-1.89-8.16-2.07-1.47-.09-3.45-.93-4.19-2.08-1.99-3.08-5.17-4.35-7.93-6.3.81,1.35,1.68,2.63,2.57,3.9.47.67.81,1.61,1.46,1.92,2.99,1.48,4.75,4.12,6.58,6.68,1.07,1.5,2.31,2.52,4.19,2.78,1.76.24,2.93,1.43,4.04,2.76-2.01.9-3.66.86-4.78-1.2-.75-1.37-1.97-1.67-3.44-1.65-3.28.03-5.88-1.04-7.27-4.37-.45-1.07-1.62-1.84-2.45-2.75-.11.1-.23.2-.34.3.09.24.12.53.26.72,2.56,3.45,5.12,6.9,7.72,10.32.21.27.65.42,1.01.5,2.87.67,4.56,2.96,6.91,4.87-1.26-.17-2.2-.3-3.13-.43.17,2.56,1.23,3.93,3.73,4.28,1.05.15,2.41.87,2.91,1.74,2.57,4.49,8.18,5.2,11.15,9.17.48.65,1.66.75,2.49,1.18.93.48,1.82,1.04,2.72,1.56-.06.13-.12.27-.19.4-.87-.26-1.87-.33-2.59-.82-1.77-1.22-3.54-1.52-5.52-.67-1.1.48-1.86.1-2.36-.96-.91-1.96-2.41-3.11-4.58-3.49-.7-.12-1.43-.6-1.95-1.11-1.27-1.26-2.68-1.52-4.33-1.02-.31.09-.66.07-.97.16-1.09.32-1.82-.04-2.46-.99-.73-1.08-1.65-2.04-2.48-3.05l-.39.22c.04.8.16,1.61.11,2.41-.09,1.41.44,2.41,1.68,3.07,1.42.76,2.31,1.95,2.7,3.51.35,1.4,1.22,2.12,2.63,2.54,1.2.36,2.48.97,3.31,1.86,1.27,1.35,2.59,2.27,4.45,2.33,1.26.04,2.08.67,2.61,1.83,1.11,2.42,2.89,4.26,5.37,5.24,1.92.76,3.95,1.26,5.96,1.89-1.05.55-2.22,1.16-3.36,1.76-1.41-1.41-2.4-3.15-4.58-3.09-.16,0-.39-.22-.49-.4-.59-.98-1.51-.72-2.43-.84-2.12-.28-4.27-.65-6.29-1.34-1.87-.64-3.51-1.94-5.37-2.6-1.62-.57-3.14-1.08-4.27-2.49-.4-.49-1.14-.96-1.74-.98-1.09-.04-1.66-.52-2.16-1.4-.93-1.63-1.94-3.23-3.77-4.08-.44,1.71.05,2.87,1.37,3.93,1.03.83,1.73,2.06,2.61,3.08.76.89,1.57,1.75,2.36,2.63.96,1.07,2.11,2.03,2.84,3.24.69,1.15,1.4,1.84,2.78,1.81,1.83-.04,3.13.67,3.89,2.51.39.94,1.29,1.71,2.06,2.44,1.03.97,2.26,1.74,3.23,2.76,1.04,1.08,2.15,1.51,3.63,1.37,1.05-.1,2.12.08,3.18.14-1.22.44-2.42.49-3.54.82-1.45.43-2.63.27-3.67-.89-1.01-1.14-2.26-1.69-3.8-1.23-1.73.52-2.79-.16-3.4-1.77-.11-.3-.36-.55-.48-.86-.44-1.15-1.25-1.59-2.44-1.29-2.18.55-3.51-.27-4.47-2.31-1-2.13-3.04-3.2-5.17-4.09,1.26,2.13,2.66,4.14,4.18,6.04.59.74,1.39,1.46,2.24,1.8,1.95.76,3.17,1.99,3.52,4.06.19,1.11.82,1.71,1.97,1.79,2.28.17,3.88,1.4,5.24,3.18,1.67,2.17,3.46,4.25,6.42,4.69.25.04.58.18.7.38,1.59,2.55,4.13,3.76,6.74,4.92.42.19.76.54,1.14.82-.82.16-1.67.19-2.2-.2-1.99-1.45-4.02-1.61-6.29-.78-.4.15-1.32-.21-1.54-.59-1.18-2.09-2.65-3.69-5.2-3.96-.35-.04-.76-.26-.99-.53-1.7-1.94-3.79-2.06-6.07-1.37-1.05.32-1.71-.09-2.32-.97-.76-1.1-1.7-2.07-2.57-3.1-.32.78-.23,1.33-.28,1.86-.18,1.94.59,3.26,2.26,4.31.84.53,1.6,1.54,1.9,2.5.54,1.71,1.67,2.66,3.23,3.1,1.61.45,2.73,1.43,3.85,2.59.62.65,1.59,1.01,2.46,1.35.99.4,2.39.32,2.99,1,1.74,1.98,3.16,4.24,4.54,6.15-.93-.26-2.18-.64-3.44-.97-2.21-.58-4.44-1.06-6.62-1.72-2.24-.68-4.46-1.43-6.62-2.32-3.21-1.32-6.35-2.8-9.53-4.22-.36-.16-.7-.34-1.07-.51-.06,2.72,1.07,4.59,3.14,6.18,1.33,1.02,2.16,2.67,3.35,3.92,1.29,1.35,2.36,2.98,4.42,3.47.98.23,2.08.81,2.69,1.58.94,1.17,1.98,1.67,3.43,1.83.83.09,1.6.67,2.4,1.02l-.23.52c-3.33.55-6.18-.46-8.62-2.78-1.59-1.51-3.15-3.14-5.54-3.1-1.67.03-2.8-.53-3.49-2.07-.19-.42-.56-.85-.96-1.07-2.33-1.26-4.12-2.97-5.07-5.49-.01-.04-.18-.02-.41-.03,0,.37,0,.73,0,1.1.26,14.09.53,28.17.79,42.26.06,3.23.05,3.19,3.23,3.72,13.32,2.26,26.43,5.29,38.96,10.46,6.38,2.63,25.54,11.99,30.7,16.68,1.34,1.22-10.53-3.63-9.28-2.31-3.04-1.29-5.81-2.9-8.69-4.28-14.07-6.77-29.04-10.72-44.28-13.72-18.57-3.66-37.34-5.59-56.24-6.35-25.92-1.04-51.74-.06-77.44,3.63-2.49.36-4.98.73-7.47,1.1,19.5-5.61,39.48-8.01,59.86-9.16,0-6.12,0-12.03,0-18.25-1.5,1.6-2.68,3.32-4.28,4.42-1.49,1.03-3.43,1.42-5.22,2.11,3.05-3.15,6-6.21,8.95-9.26-.16-.18-.32-.36-.48-.54-1.05.74-2.04,1.57-3.16,2.18-1.06.58-2.25,1.28-3.39,1.3-2.08.04-3.68.67-4.98,2.28-.3.37-.95.65-1.44.65-1.04,0-2.07-.2-3.22-.33.63-.24,1.28-.39,1.82-.7,1.2-.7,2.58-1.27,3.47-2.27,1.64-1.85,2.74-4.28,5.74-4.19.04-.9.08-1.59.12-2.56-1.72,1.85-3.54,2.83-5.91,2.73-.78-.03-1.72.41-2.37.91-1.65,1.27-3.37,1.34-5.23.58,1.3-.35,2.62-.49,3.93-.69.4-.06.81-.24,1.16-.45.79-.48,1.56-.98,2.3-1.52,1.05-.77,2.42-1.4,3.01-2.45.73-1.29.91-2.85,2.86-2.87.13,0,.24-.45.4-.67.49-.69,1-1.36,1.48-2.05.21-.3.35-.63.53-.95-.77-.05-1.27.12-1.72.39-2.06,1.22-4.08,2.51-6.17,3.69-.54.31-1.26.31-1.89.45.68-.89,1.45-1.39,2.16-1.97.79-.64,1.42-1.6,2.31-1.96,2.33-.93,3.13-3.29,4.82-4.79.22-.19.22-.62.33-.94-.1-.12-.2-.23-.3-.35-.86,2.14-2.61,2.42-4.47,2.62-.47.05-.86.66-1.34.88-1.38.62-2.75,1.31-4.2,1.71-.82.22-1.78-.08-2.67-.14,3.13-.81,5.1-2.84,6.91-5.29.81-1.1,2.36-1.67,3.57-2.48l.37.34c.04-.72.09-1.44.16-2.63-1.76,2.11-3.64,2.96-5.99,2.86-.7-.03-1.56.29-2.1.74-1.67,1.41-3.48,1.5-5.47.79,1.27-.36,2.57-.51,3.86-.73.45-.08.93-.24,1.3-.5,1.5-1.06,2.89-2.3,4.46-3.24,1.44-.86,1.5-2.04,1.41-2.79,1.13-2.84,4.36-3.27,5.06-6.34-2.16,1.09-4.02,2.03-5.88,2.97-.09-.16-.17-.32-.26-.49,2.4-1.89,5.42-3.16,6.82-6.6-1.02.6-1.62,1.14-2.32,1.34-2.33.68-4.69,1.27-7.06,1.85-.46.11-.97.02-1.48.02,1.32-1.22,2.4-2.56,3.79-3.41,1.57-.97,3.35-1.56,3.69-3.73-1.49-1.22-2.26-.42-4.01.81-.54.38-1.23.52-1.81.75,2.3-4.18,7.67-5.29,8.92-9.98-1.37.59-2.82,1.21-4.27,1.83-.06-.15-.12-.3-.19-.45,1.17-.66,2.48-1.17,3.48-2.03,1.04-.89,1.78-2.12,2.78-3.37-1.32.56-2.48,1.05-3.88,1.64,1.95-2.93,5.13-4.58,6.21-7.97-1.72,1.11-3.28,2.12-4.83,3.13-.07-.11-.14-.22-.22-.33,1.12-.97,2.24-1.94,3.37-2.92-.09-.12-.18-.25-.27-.37-1.01.43-2.02.87-3.03,1.3,2.92-1.7,4.13-4.56,5.51-7.64.78,3.91,3.23,6.28,6.58,7.88-.13.18-.26.36-.39.53-1.29-.72-2.58-1.44-3.87-2.17-.07.08-.14.16-.21.24,1.45,1.3,2.89,2.6,4.34,3.9l-.15.26c-1.7-1.1-3.41-2.2-5.11-3.3.47,1.35,1.27,2.43,1.68,3.63.47,1.38,1.36,2.13,2.58,2.75.98.5,1.87,1.18,2.8,1.78l-.34.55c-1.79-1.03-3.58-2.06-5.37-3.08.64,1.25,1.42,2.34,2.39,3.24.97.9,2.12,1.59,3.19,2.38-.04.08-.07.16-.11.24-1.2-.44-2.41-.89-3.68-1.35-.33,1.93,1.35,2.51,2.4,3.35.32.26,1.48-.25,2.08-.66,1.24-.85,2.37-1.84,3.51-2.81,1.02-.86,1.16-3.61.46-4.06.76-.63,1.6-1.27,2.37-1.99.91-.84,1.63-1.96,2.66-2.57,1.82-1.08,3.13-2.34,3.11-4.56-3.27,1.29-5.78,4.35-9.77,4.16,3.67-2.24,6.93-4.96,9.9-8.11-.67-.22-1.25-.18-1.82-.22-3.23-.24-5.93,1.62-8.95,2.25-.77.16-1.66.11-2.27.51-1.16.74-2.07.42-2.86-.06,1.26-.92,2.82-1.62,3.7-2.82,1.24-1.7,2.82-2.69,4.64-3.43,1.35-.55,2.25-1.36,2.71-2.8.19-.59.84-1.07,1.35-1.52.43-.38.95-.67,1.42-1-.05-.05-.11-.1-.16-.15-1,.34-2.01.68-3.01,1.02-.04-.11-.07-.21-.11-.32.18-.09.37-.18.74-.36-2.47-.61-4.21.46-5.63,2-1.17,1.27-2.26,1.09-3.17.66.83-.84,1.68-1.68,2.51-2.54.52-.54.96-1.19,1.55-1.64,3.9-2.97,8.08-5.66,10.01-10.51.16-.39.55-.7.83-1.04-1.39.71-2.46,1.87-3.78,2.5-1.28.61-2.81.67-4.24.97l-.18-.67c.88-.33,1.75-.67,2.63-1,.75-.27,1.74-.31,2.21-.83,1.84-2.01,3.51-4.17,5.29-6.32-2.25.99-4.46,1.96-6.67,2.93,4.89-3.98,10.13-10.67,9.92-12.94-1.48,1.95-7.54,5.71-8.77,5.55.43-.33.95-.7,1.45-1.09.89-.7,1.82-1.36,2.65-2.13.85-.77,1.6-1.65,2.4-2.48-.11-.08-.22-.17-.33-.25-2.16.91-4.32,1.81-6.49,2.72-.08-.13-.17-.26-.25-.39,6.02-1.94,8.25-7.01,10.31-12.16.37,1.3.75,2.64,1.06,3.74,1.59-.26,2.97-.49,4.35-.71.05.13.11.26.16.38-1.01.9-2.02,1.8-3.06,2.74,1.89,2.56,4.01,4.48,6.93,5.5.66-.89,1.17-1.85,1.93-2.51.8-.7,1.82-1.15,2.77-1.67.86-.47,1.73-.97,2.65-1.28,1.43-.48,2.27-1.44,2.63-2.85.36-1.42,1.23-2.37,2.52-3.02.66-.33,1.21-.87,1.81-1.31-.08-.12-.15-.25-.23-.37-1.5.84-2.87,2.17-4.79,1.4.46-.18.91-.36,1.62-.64-3.44-.73-5.9.59-7.94,2.69-1.37,1.41-2.7,2.07-4.56,1.2-.31-.15-.67-.19-1.38-.39.88-.22,1.39-.41,1.92-.46,1.09-.11,1.78-.67,2.22-1.65.8-1.8,2.15-3.07,3.75-4.2,2.27-1.6,4.45-3.34,6.59-5.12,1.21-1,2.44-2.07,3.33-3.34,1.91-2.75,2.77-6.24,5.87-8.2-1.93,1.15-3.76,2.4-5.43,3.83-2.25,1.92-4.85,2.05-7.75,2.01,1.36-1.75,3.12-1.97,4.89-2.31.88-.17,1.85-.67,2.45-1.32,2.44-2.63,4.75-5.37,7.1-8.07.09-.1.09-.27.15-.44-3.4,1.49-6.74,2.96-10.08,4.43.63-.81,1.47-1.25,2.09-1.9,3.3-3.47,6.58-6.97,9.81-10.51,1.72-1.89,2.59-4.19,2.91-6.74-1.12,2.92-3.85,4.01-6.21,5.35-2.33,1.33-4.16,3.93-6.99,3.51,1.04-.84,2.19-1.82,3.4-2.74,1.03-.78,2.05-1.63,3.21-2.19,1.76-.85,2.18-2.43,2.79-3.81-3.19,1.36-6.36,2.72-9.53,4.08-.12-.18-.25-.36-.37-.53,8.68-3.03,12.24-10.07,14.68-18,1,9.05,6.66,14.59,14.93,18.17-2.46.9-4.26.06-5.9-1.03-1.59-1.06-3.03-2.35-4.53-3.54,2.43,4.39,6.12,7.42,10.77,9.86-3.24-.08-3.2-.13-5.35-1.66-2.64-1.89-5.36-3.68-8.04-5.51.47,1.34,1.14,2.5,1.78,3.67.95,1.76,2.17,3.44,2.76,5.31.73,2.33,2.34,4.11,4.29,4.58,3.5.85,5.24,4.06,8.35,5.25-5.66-.12-9.57-3.93-14-6.67,1.95,4.4,6.08,9.05,14.37,13.1ZM738.94,425.86c.24.09.55.26.72.17,1.49-.7,2.96-1.44,4.4-2.15-1.13-.53-2-1.06-2.93-1.34-.67-.2-1.44-.11-2.16-.08-.82.04-1.67.06-2.45.29-1.29.38-.68,1.28-.4,2.05-1.07-.05-2.14-.11-3.76-.19,1.71,1.48,3.17,2.76,4.75,4.13.55-.7.94-1.2,1.37-1.74-.83-.77-1.61-1.49-2.39-2.2.94.35,1.89.72,2.84,1.07ZM776.1,362.41c.32-.2.71-.37.92-.66,1.48-2.07,3.51-3.46,5.52-4.97,1.25-.95,1.67-3,2.47-4.55-.13-.1-.27-.2-.4-.3-.86.7-1.67,1.48-2.6,2.06-.78.48-1.72,1-2.59,1-2.02-.01-3.8.52-5.63,1.33-2.07.91-4.33,1.42-6.61,2.13.22.35.37.61.53.87-2.1-.12-4.19-.23-6.32-.35.27,2.79,1.88,4.5,4.57,5.52,1.22.46,2.22,1.48,3.32,2.24.34.24.7.47,1.42.93-4.21-.19-6.78-2.94-9.83-4.67,2.01,4.41,5.77,6.88,9.64,9.46-2.27-.8-4.54-1.6-6.85-2.41,0,1.31.31,2.43,1.5,3.33,1.73,1.31,3.38,2.74,4.26,4.86.21.51,1.05,1.18,1.43,1.09.55-.14,1.18-.83,1.36-1.42.41-1.34.56-2.75.84-4.24-.61-.08-1.07-.14-1.8-.24.56-.27.9-.5,1.27-.61,1.43-.42,2.51-1.23,3.18-2.59,1.2-2.4,3.63-3.38,5.67-4.79.96-.66,1.6-1.31,1.67-2.57.05-.81.51-1.6.86-2.61-1.07.61-2.08,1.18-3.08,1.77-1.17.69-2.37,1.36-3.49,2.13-2.45,1.68-5.15,2.54-8.11,2.59,2.3-1.45,4.59-2.89,6.89-4.34ZM762.38,443.87c-.08,1.9.57,3.4,1.87,4.02,1.82-.4,3.19-.7,4.56-1.01-.49.51-.97,1.03-1.47,1.54-1.19,1.2-1.19,1.93.01,3.09.34.33.63.86,1.04.97,2.39.65,3.77,3.16,6.37,3.42.45.04.86.46,1.7.94-2.81.55-4.76-.16-6.41-1.71-1.42-1.34-2.84-2.54-4.96-2.45-.35.01-.78-.3-1.08-.57-1.01-.89-2.02-1.77-2.94-2.75-.73-.77-1.32-1.66-2.06-2.61-.06.36-.15.69-.15,1.01.14,9,.31,18.01.42,27.01.01,1.08.31,1.5,1.46,1.59,9.52.73,19.03,1.54,28.54,2.31.37.03.75,0,1.36,0,.28-15.12.56-30.2.84-45.12-2.68,2.36-5.35,4.7-8.19,7.19,1.09.65,1.92,1.15,2.75,1.65-.07.14-.14.28-.2.41-.87-.36-1.74-.72-2.67-1.1-.08.06-.28.12-.33.24-.68,1.78-2.02,2.03-3.77,1.97-1.2-.04-2.43.57-3.73.92.25.43.29.59.35.59,2.02.11,3.39,1.02,4.24,2.93.37.84,1.28,1.44,1.83,2.42-4.33-1.3-8.66-2.6-12.99-3.91-2.13-1.01-4.25-2.02-6.41-3.04ZM729.73,476.12c8.36,0,16.5,0,24.84,0,.18-9.85.36-19.54.54-29.24-1.31,1.1-2.54,2.1-3.73,3.16-.72.64-1.51,1.29-2.02,2.09-.85,1.33-1.56,2.68-3.6,2.24.41.28.83.56,1.64,1.11-.71-.16-1.01-.15-1.21-.28-1.29-.81-2.33-.36-3.41.48-.74.57-1.63.93-2.25,1.27,1.08.89,2.52,2.06,3.96,3.24-.09.16-.18.31-.27.47-4.19-1.05-8.41-2.03-12.35-4.14,1.76,3.96,4.87,6.48,9.07,8.24-1.74.43-2.84-.19-3.98-.96-1-.68-2.23-1.03-3.2-1.74-1.44-1.05-2.75-2.3-4.03-3.39,0,5.64,0,11.5,0,17.46ZM744.3,448.03c-1.05.53-1.95.49-2.93-.37-.92-.81-2.55-.25-3.42.78,1.16,1.01,2.34,1.96,3.43,3.02,1.36,1.32,2.19,1.4,3.65.34,2.63-1.91,5.01-3.99,6.37-7.06.26-.59,1-.96,1.46-1.48.34-.38.61-.83.91-1.25-.15-.15-.3-.3-.44-.44-1.74,1.26-3.38,2.68-5.24,3.74-1.75,1-3.73,1.61-5.63,2.41.46.08,1.15.2,1.83.32ZM777.87,437.32c1.46,1.15,2.6,1.1,3.84-.29,1.4-1.55,2.5-3.36,3.8-5.01.96-1.22,2.03-2.34,3.02-3.54.43-.51.78-1.09,1.16-1.64-.18-.19-.36-.38-.54-.57-2.14,1.49-4.25,3.02-6.42,4.47-1.25.84-2.56,1.61-3.9,2.28-1.1.56-2.29.93-3.63,1.47.84.91,1.64,2.02,2.67,2.83ZM770.4,404.05c.2.02.32.06.4.02,1.43-.67,2.91-1.26,4.24-2.09.61-.38,1.1-1.19,1.34-1.9.53-1.59,1.5-2.64,2.92-3.53,1.06-.67,1.81-1.83,2.7-2.77-.14-.19-.29-.38-.43-.57-.6.25-1.52.34-1.75.78-1.17,2.25-3.15,2.26-5.23,2.17-.67-.03-1.35.06-2.41.12.77.8,1.24,1.3,1.71,1.79-.03.16-.07.32-.1.47-1.06-.17-2.11-.34-3.17-.5l-.04-.53c-.77.72-1.54,1.43-2.26,2.11,1.3,1.11,2.48,2.11,3.93,3.35-.91-.11-1.44-.18-2.28-.28.2.6.32.99.44,1.35ZM776.59,439c-.55-.22-1.28-.25-1.66-.63-1.4-1.39-2.94-1.45-4.79-1.17-.72.11-1.61-.91-2.5-1.46-1.24.87-1.21,1.46,0,2.58.85.77,1.63,1.71,2.16,2.71.92,1.76,3.07,2.54,4.73,1.47,1.21-.79,2.37-1.65,3.86-2.69-.86-.39-1.32-.62-1.8-.81ZM737.61,430.73c1.25.82,2.5,1.65,3.91,2.58-.26-2.22,1.32-2.46,2.98-2.76.45-.08,1.03-.63,1.15-1.07.37-1.45,1.14-2.52,2.39-3.34.42-.28.63-.88.94-1.33-.14-.14-.28-.28-.42-.42-4.12,1.37-7.53,3.98-10.95,6.34ZM777.9,410.39c.22-.52.39-.8.45-1.1.38-2.05,1.49-3.51,3.25-4.63.62-.4.94-1.29,1.21-2.16-3.34.1-5.53,2.65-8.84,3.51,1.45,1.61,2.62,2.92,3.93,4.37ZM770.13,414.51c.42.58,1.17.93,2.05,1.6.25-1.31.33-2.23.63-3.08.27-.74.79-1.4,1.27-2.22-1.08-1.13-4.9-1.31-6.36-.2.85,1.41,1.54,2.72,2.41,3.9ZM734.83,452.08c1.66,1.12,2.01,3.65,4.38,4.02,1.3.2,2.77-.63,2.93-1.91.03-.26-.19-.78-.34-.79-1.63-.2-2.68-2.12-4.64-1.48-.46.15-1.16-.46-2.04-.85-.1.32-.39.95-.3,1.02ZM741.24,414.01c.78-.55,1.93-.55,2.88-.9.48-.18,1.25-.6,1.25-.9-.03-1.97.28-3.73,2.37-4.76-.17-.13-.35-.27-.52-.4-.56.55-1.09,1.15-1.69,1.65-1.6,1.33-3.12,2.83-4.9,3.86-1.08.63-2.59.52-4,.76,1.57,2.01,2.62,2.08,4.62.69ZM804.69,425.71c-.82-.2-1.52-1.1-2.14-1.8-.96-1.09-1.8-2.29-2.87-3.31.57,3.08,4.41,7.31,8.63,9.79-.28-2.41-1.15-4.08-3.62-4.68ZM747.02,418.01c-.82,1.74-2.2,2.12-3.96,2.07-.86-.02-1.72.33-2.95.59.9.82,1.43,1.44,2.08,1.88.93.63,1.86.89,2.49-.5.23-.5.67-1.04,1.15-1.27,1.69-.8,2.24-2.36,2.94-3.83-.14-.13-.29-.26-.43-.38-.45.48-1.06.88-1.33,1.44ZM769.82,355.64c.08.13.15.27.23.4,4.28-.99,7.86-3.17,10.65-6.74-3.63,2.11-7.26,4.22-10.89,6.34ZM763.57,416.86c.69.57,1.28,1.31,1.75,2.08,1.29,2.11,1.43,2.15,3.45.09-.8-.42-1.53-.76-2.22-1.17-.47-.29-.95-.63-1.31-1.05-.79-.92-1.52-1.89-2.46-3.09-.54,1.62-.1,2.4.79,3.14ZM736.89,437.6c.16.03.32.06.48.09.98-.77,1.96-1.53,2.95-2.3,0-.19,0-.39,0-.58-.97-.22-1.97-.35-2.89-.69-.92-.33-1.76-.88-2.69-1.36-.84,2.35,2.57,2.61,2.16,4.83ZM767.32,392.86c.37-.45.76-.94.95-1.16-1.18-1.24-2.21-2.41-3.35-3.48-.76-.72-1.54-1.66-3.24-.6,1.94,1.81,3.73,3.48,5.64,5.25ZM775.85,386.45c.71-.16,1.38-.55,2.06-.84-.6-.26-1.26-.44-1.79-.8-2.25-1.54-3.46.94-5.23,1.28,1.61.91,3.29.71,4.95.35ZM770.68,424.16c1.45.88,5.56.61,7.28-.54-2.67-1.95-5.03-1.14-7.28.54ZM736.44,443.02c.97,1.27,2.25.95,3.32-.86-1.76-1.52-3.68-2-5.11-1.34.59.72,1.21,1.45,1.79,2.2ZM735.9,415.43c-.64-.11-1.21-.2-2.09-.35,1.2,1.31,2.19,2.39,3.31,3.61.55-.72,1.09-1.43,1.83-2.4-1.12-.74-2.14-1.42-3.16-2.09-.09.15-.19.3-.28.44.12.23.23.46.4.79ZM741.42,439.53c1.08,1.08,2.5,1.1,3.52.43.58-.39.49-1.79.7-2.74-.19-.1-.37-.2-.56-.3-1.21.87-2.43,1.73-3.66,2.61ZM769.92,427.4c-1.86.51-2.3-.7-2.89-1.72-.54-.92-1.09-1.86-2.72-.77,1.4,1.44,2.74,2.8,4.25,4.35.62-.85.9-1.22,1.37-1.86ZM784.27,335.47l-.46-.35c-1.52,2.05-3.03,4.11-4.55,6.16,3.4-.63,3.57-3.7,5.01-5.81ZM758.81,354.44c.46,3.09,1.96,4.12,4.24,2.84-1.43-.96-2.81-1.88-4.24-2.84ZM766.9,444.69c.38-3.26-2.38-3.13-3.89-4.25l-.41.43c1.39,1.24,2.78,2.48,4.3,3.82ZM746.82,386.88c-2.34,1.36-4.68,2.71-7.02,4.07.07.13.15.25.22.38,2.68-.79,5.18-1.87,6.79-4.44ZM781.38,378.03c-3.11.58-3.44,3.45-5.54,4.99.83.29,1.37.48,2.37.83-.98-3.22,1.69-3.89,3.17-5.82ZM760.57,352.52c-.09.07-.18.15-.28.22,1.15,1.25,2.26,2.53,3.5,3.69.2.19.95-.2,1.64-.38-1.88-1.37-3.37-2.45-4.86-3.53ZM736.23,446.54c.21.06.59-.42.62-.44-1.41-1.27-2.71-2.43-4-3.59-.09.1-.19.19-.28.29.98,1.47,1.73,3.17,3.66,3.74ZM782.75,414.74c-.15-.17-.3-.33-.45-.5-1.71,1.12-3.21,2.49-4.34,4.27.12.12.23.24.35.36,1.48-1.38,2.96-2.75,4.44-4.13ZM761.43,391.16c-.16.11-.32.23-.48.34.99,1.72,1.93,3.49,3.55,4.78.09.07.48-.24.61-.31-1.32-1.73-2.49-3.27-3.67-4.81ZM731.49,418.2c.36,2.18,1.05,2.88,2.79,3.32.11-.12.23-.23.34-.35-1.04-.99-2.09-1.98-3.13-2.97ZM749.8,376.92c-.13-.1-.25-.2-.38-.3-1,1.35-2,2.69-3,4.04,2.32-.32,2.43-2.34,3.38-3.74ZM731.14,452.45c-.12.09-.24.18-.36.27,1.23,1.35,2.46,2.71,3.69,4.06.21-.2.43-.4.64-.59-1.32-1.25-2.65-2.49-3.97-3.74ZM788.86,421.58c-.09-.1-.18-.21-.27-.31-1.42.77-3.1,1.22-3.24,3.4,1.17-1.03,2.34-2.06,3.52-3.1ZM802.3,334.24c-.53,2.38,1.57,2.3,2.41,3.39.2-.2.39-.4.59-.6-1-.93-2-1.86-3-2.79ZM748.97,433.2c-.12-.13-.25-.27-.37-.4-1.06.98-2.12,1.97-3.18,2.95l.42.43c1.04-.99,2.09-1.98,3.13-2.97ZM721.37,419.87c-.1-.18-.2-.35-.29-.53-1.25.71-2.5,1.42-3.75,2.13.09.16.18.32.27.48,1.26-.69,2.51-1.39,3.77-2.08Z"
    style="fill: #fff;" />
  <path
    d="M263.73,315.41c-1.76-.27-3.54-.53-5.21-1.09-1.73-.58-3.36-1.45-5.15-2.25.07,1.97.39,3.55,2.02,4.83,1.78,1.4,3.72,2.91,4.78,4.82,1.72,3.1,4,5.04,7.38,5.88.72.18,1.57.68,1.95,1.29,1.12,1.81,2.67,2.61,4.73,2.53,1.37-.05,2,.75,2.52,1.96-2.83.42-5.46.19-7.8-1.34-1.49-.98-2.78-2.25-4.21-3.32-1.72-1.29-3.36-2.84-6.29-2.45,1.49,1.11,2.6,1.95,3.73,2.79-2-.54-4.02-1.08-6.04-1.62-.1.14-.2.29-.3.43.68.71,1.35,1.42,2.05,2.11.92.9,2.22,1.61,2.71,2.7.89,1.99,2.25,2.79,4.28,2.74,1.19-.03,1.77.61,2.4,1.57.91,1.37,2.08,2.58,3.23,3.78.75.78,1.75,1.34,2.46,2.15,1.04,1.18,2.25,1.55,3.77,1.41.95-.09,1.92.08,2.88.14-.78.42-1.58.39-2.27.63-2.1.72-3.9.55-5.44-1.23-.35-.41-1.02-.55-1.54-.82-.05.13-.11.26-.16.4.46.33.92.66,1.39.99-.83.05-1.6-.03-2.3-.28-2.65-.96-5.25-1.89-8.16-2.07-1.47-.09-3.45-.93-4.19-2.08-1.99-3.08-5.17-4.35-7.93-6.3.81,1.35,1.68,2.63,2.57,3.9.47.67.81,1.61,1.46,1.92,2.99,1.48,4.75,4.12,6.58,6.68,1.07,1.5,2.31,2.52,4.19,2.78,1.76.24,2.93,1.43,4.04,2.76-2.01.9-3.66.86-4.78-1.2-.75-1.37-1.97-1.67-3.44-1.65-3.28.03-5.88-1.04-7.27-4.37-.45-1.07-1.62-1.84-2.45-2.75-.11.1-.23.2-.34.3.09.24.12.53.26.72,2.56,3.45,5.12,6.9,7.72,10.32.21.27.65.42,1.01.5,2.87.67,4.56,2.96,6.91,4.87-1.26-.17-2.2-.3-3.13-.43.17,2.56,1.23,3.93,3.73,4.28,1.05.15,2.41.87,2.91,1.74,2.57,4.49,8.18,5.2,11.15,9.17.48.65,1.66.75,2.49,1.18.93.48,1.82,1.04,2.72,1.56-.06.13-.12.27-.19.4-.87-.26-1.87-.33-2.59-.82-1.77-1.22-3.54-1.52-5.52-.67-1.1.48-1.86.1-2.36-.96-.91-1.96-2.41-3.11-4.58-3.49-.7-.12-1.43-.6-1.95-1.11-1.27-1.26-2.68-1.52-4.33-1.02-.31.09-.66.07-.97.16-1.09.32-1.82-.04-2.46-.99-.73-1.08-1.65-2.04-2.48-3.05l-.39.22c.04.8.16,1.61.11,2.41-.09,1.41.44,2.41,1.68,3.07,1.42.76,2.31,1.95,2.7,3.51.35,1.4,1.22,2.12,2.63,2.54,1.2.36,2.48.97,3.31,1.86,1.27,1.35,2.59,2.27,4.45,2.33,1.26.04,2.08.67,2.61,1.83,1.11,2.42,2.89,4.26,5.37,5.24,1.92.76,3.95,1.26,5.96,1.89-1.05.55-2.22,1.16-3.36,1.76-1.41-1.41-2.4-3.15-4.58-3.09-.16,0-.39-.22-.49-.4-.59-.98-1.51-.72-2.43-.84-2.12-.28-4.27-.65-6.29-1.34-1.87-.64-3.51-1.94-5.37-2.6-1.62-.57-3.14-1.08-4.27-2.49-.4-.49-1.14-.96-1.74-.98-1.09-.04-1.66-.52-2.16-1.4-.93-1.63-1.94-3.23-3.77-4.08-.44,1.71.05,2.87,1.37,3.93,1.03.83,1.73,2.06,2.61,3.08.76.89,1.57,1.75,2.36,2.63.96,1.07,2.11,2.03,2.84,3.24.69,1.15,1.4,1.84,2.78,1.81,1.83-.04,3.13.67,3.89,2.51.39.94,1.29,1.71,2.06,2.44,1.03.97,2.26,1.74,3.23,2.76,1.04,1.08,2.15,1.51,3.63,1.37,1.05-.1,2.12.08,3.18.14-1.22.44-2.42.49-3.54.82-1.45.43-2.63.27-3.67-.89-1.01-1.14-2.26-1.69-3.8-1.23-1.73.52-2.79-.16-3.4-1.77-.11-.3-.36-.55-.48-.86-.44-1.15-1.25-1.59-2.44-1.29-2.18.55-3.51-.27-4.47-2.31-1-2.13-3.04-3.2-5.17-4.09,1.26,2.13,2.66,4.14,4.18,6.04.59.74,1.39,1.46,2.24,1.8,1.95.76,3.17,1.99,3.52,4.06.19,1.11.82,1.71,1.97,1.79,2.28.17,3.88,1.4,5.24,3.18,1.67,2.17,3.46,4.25,6.42,4.69.25.04.58.18.7.38,1.59,2.55,4.13,3.76,6.74,4.92.42.19.76.54,1.14.82-.82.16-1.67.19-2.2-.2-1.99-1.45-4.02-1.61-6.29-.78-.4.15-1.32-.21-1.54-.59-1.18-2.09-2.65-3.69-5.2-3.96-.35-.04-.76-.26-.99-.53-1.7-1.94-3.79-2.06-6.07-1.37-1.05.32-1.71-.09-2.32-.97-.76-1.1-1.7-2.07-2.57-3.1-.32.78-.23,1.33-.28,1.86-.18,1.94.59,3.26,2.26,4.31.84.53,1.6,1.54,1.9,2.5.54,1.71,1.67,2.66,3.23,3.1,1.61.45,2.73,1.43,3.85,2.59.62.65,1.59,1.01,2.46,1.35.99.4,2.39.32,2.99,1,1.74,1.98,3.16,4.24,4.54,6.15-.93-.26-2.18-.64-3.44-.97-2.21-.58-4.44-1.06-6.62-1.72-2.24-.68-4.46-1.43-6.62-2.32-3.21-1.32-6.35-2.8-9.53-4.22-.36-.16-.7-.34-1.07-.51-.06,2.72,1.07,4.59,3.14,6.18,1.33,1.02,2.16,2.67,3.35,3.92,1.29,1.35,2.36,2.98,4.42,3.47.98.23,2.08.81,2.69,1.58.94,1.17,1.98,1.67,3.43,1.83.83.09,1.6.67,2.4,1.02l-.23.52c-3.33.55-6.18-.46-8.62-2.78-1.59-1.51-3.15-3.14-5.54-3.1-1.67.03-2.8-.53-3.49-2.07-.19-.42-.56-.85-.96-1.07-2.33-1.26-4.12-2.97-5.07-5.49-.01-.04-.18-.02-.41-.03,0,.37,0,.73,0,1.1.26,14.09.53,28.17.79,42.26.06,3.23.05,3.19,3.23,3.72,13.32,2.26,26.43,5.29,38.96,10.46,6.38,2.63,25.54,11.99,30.7,16.68,1.34,1.22-10.53-3.63-9.28-2.31-3.04-1.29-5.81-2.9-8.69-4.28-14.07-6.77-29.04-10.72-44.28-13.72-18.57-3.66-37.34-5.59-56.24-6.35-25.92-1.04-51.74-.06-77.44,3.63-2.49.36-4.98.73-7.47,1.1,19.5-5.61,39.48-8.01,59.86-9.16,0-6.12,0-12.03,0-18.25-1.5,1.6-2.68,3.32-4.28,4.42-1.49,1.03-3.43,1.42-5.22,2.11,3.05-3.15,6-6.21,8.95-9.26-.16-.18-.32-.36-.48-.54-1.05.74-2.04,1.57-3.16,2.18-1.06.58-2.25,1.28-3.39,1.3-2.08.04-3.68.67-4.98,2.28-.3.37-.95.65-1.44.65-1.04,0-2.07-.2-3.22-.33.63-.24,1.28-.39,1.82-.7,1.2-.7,2.58-1.27,3.47-2.27,1.64-1.85,2.74-4.28,5.74-4.19.04-.9.08-1.59.12-2.56-1.72,1.85-3.54,2.83-5.91,2.73-.78-.03-1.72.41-2.37.91-1.65,1.27-3.37,1.34-5.23.58,1.3-.35,2.62-.49,3.93-.69.4-.06.81-.24,1.16-.45.79-.48,1.56-.98,2.3-1.52,1.05-.77,2.42-1.4,3.01-2.45.73-1.29.91-2.85,2.86-2.87.13,0,.24-.45.4-.67.49-.69,1-1.36,1.48-2.05.21-.3.35-.63.53-.95-.77-.05-1.27.12-1.72.39-2.06,1.22-4.08,2.51-6.17,3.69-.54.31-1.26.31-1.89.45.68-.89,1.45-1.39,2.16-1.97.79-.64,1.42-1.6,2.31-1.96,2.33-.93,3.13-3.29,4.82-4.79.22-.19.22-.62.33-.94-.1-.12-.2-.23-.3-.35-.86,2.14-2.61,2.42-4.47,2.62-.47.05-.86.66-1.34.88-1.38.62-2.75,1.31-4.2,1.71-.82.22-1.78-.08-2.67-.14,3.13-.81,5.1-2.84,6.91-5.29.81-1.1,2.36-1.67,3.57-2.48l.37.34c.04-.72.09-1.44.16-2.63-1.76,2.11-3.64,2.96-5.99,2.86-.7-.03-1.56.29-2.1.74-1.67,1.41-3.48,1.5-5.47.79,1.27-.36,2.57-.51,3.86-.73.45-.08.93-.24,1.3-.5,1.5-1.06,2.89-2.3,4.46-3.24,1.44-.86,1.5-2.04,1.41-2.79,1.13-2.84,4.36-3.27,5.06-6.34-2.16,1.09-4.02,2.03-5.88,2.97-.09-.16-.17-.32-.26-.49,2.4-1.89,5.42-3.16,6.82-6.6-1.02.6-1.62,1.14-2.32,1.34-2.33.68-4.69,1.27-7.06,1.85-.46.11-.97.02-1.48.02,1.32-1.22,2.4-2.56,3.79-3.41,1.57-.97,3.35-1.56,3.69-3.73-1.49-1.22-2.26-.42-4.01.81-.54.38-1.23.52-1.81.75,2.3-4.18,7.67-5.29,8.92-9.98-1.37.59-2.82,1.21-4.27,1.83-.06-.15-.12-.3-.19-.45,1.17-.66,2.48-1.17,3.48-2.03,1.04-.89,1.78-2.12,2.78-3.37-1.32.56-2.48,1.05-3.88,1.64,1.95-2.93,5.13-4.58,6.21-7.97-1.72,1.11-3.28,2.12-4.83,3.13-.07-.11-.14-.22-.22-.33,1.12-.97,2.24-1.94,3.37-2.92-.09-.12-.18-.25-.27-.37-1.01.43-2.02.87-3.03,1.3,2.92-1.7,4.13-4.56,5.51-7.64.78,3.91,3.23,6.28,6.58,7.88-.13.18-.26.36-.39.53-1.29-.72-2.58-1.44-3.87-2.17-.07.08-.14.16-.21.24,1.45,1.3,2.89,2.6,4.34,3.9l-.15.26c-1.7-1.1-3.41-2.2-5.11-3.3.47,1.35,1.27,2.43,1.68,3.63.47,1.38,1.36,2.13,2.58,2.75.98.5,1.87,1.18,2.8,1.78l-.34.55c-1.79-1.03-3.58-2.06-5.37-3.08.64,1.25,1.42,2.34,2.39,3.24.97.9,2.12,1.59,3.19,2.38-.04.08-.07.16-.11.24-1.2-.44-2.41-.89-3.68-1.35-.33,1.93,1.35,2.51,2.4,3.35.32.26,1.48-.25,2.08-.66,1.24-.85,2.37-1.84,3.51-2.81,1.02-.86,1.16-3.61.46-4.06.76-.63,1.6-1.27,2.37-1.99.91-.84,1.63-1.96,2.66-2.57,1.82-1.08,3.13-2.34,3.11-4.56-3.27,1.29-5.78,4.35-9.77,4.16,3.67-2.24,6.93-4.96,9.9-8.11-.67-.22-1.25-.18-1.82-.22-3.23-.24-5.93,1.62-8.95,2.25-.77.16-1.66.11-2.27.51-1.16.74-2.07.42-2.86-.06,1.26-.92,2.82-1.62,3.7-2.82,1.24-1.7,2.82-2.69,4.64-3.43,1.35-.55,2.25-1.36,2.71-2.8.19-.59.84-1.07,1.35-1.52.43-.38.95-.67,1.42-1-.05-.05-.11-.1-.16-.15-1,.34-2.01.68-3.01,1.02-.04-.11-.07-.21-.11-.32.18-.09.37-.18.74-.36-2.47-.61-4.21.46-5.63,2-1.17,1.27-2.26,1.09-3.17.66.83-.84,1.68-1.68,2.51-2.54.52-.54.96-1.19,1.55-1.64,3.9-2.97,8.08-5.66,10.01-10.51.16-.39.55-.7.83-1.04-1.39.71-2.46,1.87-3.78,2.5-1.28.61-2.81.67-4.24.97l-.18-.67c.88-.33,1.75-.67,2.63-1,.75-.27,1.74-.31,2.21-.83,1.84-2.01,3.51-4.17,5.29-6.32-2.25.99-4.46,1.96-6.67,2.93,4.89-3.98,10.13-10.67,9.92-12.94-1.48,1.95-7.54,5.71-8.77,5.55.43-.33.95-.7,1.45-1.09.89-.7,1.82-1.36,2.65-2.13.85-.77,1.6-1.65,2.4-2.48-.11-.08-.22-.17-.33-.25-2.16.91-4.32,1.81-6.49,2.72-.08-.13-.17-.26-.25-.39,6.02-1.94,8.25-7.01,10.31-12.16.37,1.3.75,2.64,1.06,3.74,1.59-.26,2.97-.49,4.35-.71.05.13.11.26.16.38-1.01.9-2.02,1.8-3.06,2.74,1.89,2.56,4.01,4.48,6.93,5.5.66-.89,1.17-1.85,1.93-2.51.8-.7,1.82-1.15,2.77-1.67.86-.47,1.73-.97,2.65-1.28,1.43-.48,2.27-1.44,2.63-2.85.36-1.42,1.23-2.37,2.52-3.02.66-.33,1.21-.87,1.81-1.31-.08-.12-.15-.25-.23-.37-1.5.84-2.87,2.17-4.79,1.4.46-.18.91-.36,1.62-.64-3.44-.73-5.9.59-7.94,2.69-1.37,1.41-2.7,2.07-4.56,1.2-.31-.15-.67-.19-1.38-.39.88-.22,1.39-.41,1.92-.46,1.09-.11,1.78-.67,2.22-1.65.8-1.8,2.15-3.07,3.75-4.2,2.27-1.6,4.45-3.34,6.59-5.12,1.21-1,2.44-2.07,3.33-3.34,1.91-2.75,2.77-6.24,5.87-8.2-1.93,1.15-3.76,2.4-5.43,3.83-2.25,1.92-4.85,2.05-7.75,2.01,1.36-1.75,3.12-1.97,4.89-2.31.88-.17,1.85-.67,2.45-1.32,2.44-2.63,4.75-5.37,7.1-8.07.09-.1.09-.27.15-.44-3.4,1.49-6.74,2.96-10.08,4.43.63-.81,1.47-1.25,2.09-1.9,3.3-3.47,6.58-6.97,9.81-10.51,1.72-1.89,2.59-4.19,2.91-6.74-1.12,2.92-3.85,4.01-6.21,5.35-2.33,1.33-4.16,3.93-6.99,3.51,1.04-.84,2.19-1.82,3.4-2.74,1.03-.78,2.05-1.63,3.21-2.19,1.76-.85,2.18-2.43,2.79-3.81-3.19,1.36-6.36,2.72-9.53,4.08-.12-.18-.25-.36-.37-.53,8.68-3.03,12.24-10.07,14.68-18,1,9.05,6.66,14.59,14.93,18.17-2.46.9-4.26.06-5.9-1.03-1.59-1.06-3.03-2.35-4.53-3.54,2.43,4.39,6.12,7.42,10.77,9.86-3.24-.08-3.2-.13-5.35-1.66-2.64-1.89-5.36-3.68-8.04-5.51.47,1.34,1.14,2.5,1.78,3.67.95,1.76,2.17,3.44,2.76,5.31.73,2.33,2.34,4.11,4.29,4.58,3.5.85,5.24,4.06,8.35,5.25-5.66-.12-9.57-3.93-14-6.67,1.95,4.4,6.08,9.05,14.37,13.1ZM188.84,411.99c.24.09.55.26.72.17,1.49-.7,2.96-1.44,4.4-2.15-1.13-.53-2-1.06-2.93-1.34-.67-.2-1.44-.11-2.16-.08-.82.04-1.67.06-2.45.29-1.29.38-.68,1.28-.4,2.05-1.07-.05-2.14-.11-3.76-.19,1.71,1.48,3.17,2.76,4.75,4.13.55-.7.94-1.2,1.37-1.74-.83-.77-1.61-1.49-2.39-2.2.94.35,1.89.72,2.84,1.07ZM225.99,348.54c.32-.2.71-.37.92-.66,1.48-2.07,3.51-3.46,5.52-4.97,1.25-.95,1.67-3,2.47-4.55-.13-.1-.27-.2-.4-.3-.86.7-1.67,1.48-2.6,2.06-.78.48-1.72,1-2.59,1-2.02-.01-3.8.52-5.63,1.33-2.07.91-4.33,1.42-6.61,2.13.22.35.37.61.53.87-2.1-.12-4.19-.23-6.32-.35.27,2.79,1.88,4.5,4.57,5.52,1.22.46,2.22,1.48,3.32,2.24.34.24.7.47,1.42.93-4.21-.19-6.78-2.94-9.83-4.67,2.01,4.41,5.77,6.88,9.64,9.46-2.27-.8-4.54-1.6-6.85-2.41,0,1.31.31,2.43,1.5,3.33,1.73,1.31,3.38,2.74,4.26,4.86.21.51,1.05,1.18,1.43,1.09.55-.14,1.18-.83,1.36-1.42.41-1.34.56-2.75.84-4.24-.61-.08-1.07-.14-1.8-.24.56-.27.9-.5,1.27-.61,1.43-.42,2.51-1.23,3.18-2.59,1.2-2.4,3.63-3.38,5.67-4.79.96-.66,1.6-1.31,1.67-2.57.05-.81.51-1.6.86-2.61-1.07.61-2.08,1.18-3.08,1.77-1.17.69-2.37,1.36-3.49,2.13-2.45,1.68-5.15,2.54-8.11,2.59,2.3-1.45,4.59-2.89,6.89-4.34ZM212.28,430c-.08,1.9.57,3.4,1.87,4.02,1.82-.4,3.19-.7,4.56-1.01-.49.51-.97,1.03-1.47,1.54-1.19,1.2-1.19,1.93.01,3.09.34.33.63.86,1.04.97,2.39.65,3.77,3.16,6.37,3.42.45.04.86.46,1.7.94-2.81.55-4.76-.16-6.41-1.71-1.42-1.34-2.84-2.54-4.96-2.45-.35.01-.78-.3-1.08-.57-1.01-.89-2.02-1.77-2.94-2.75-.73-.77-1.32-1.66-2.06-2.61-.06.36-.15.69-.15,1.01.14,9,.31,18.01.42,27.01.01,1.08.31,1.5,1.46,1.59,9.52.73,19.03,1.54,28.54,2.31.37.03.75,0,1.36,0,.28-15.12.56-30.2.84-45.12-2.68,2.36-5.35,4.7-8.19,7.19,1.09.65,1.92,1.15,2.75,1.65-.07.14-.14.28-.2.41-.87-.36-1.74-.72-2.67-1.1-.08.06-.28.12-.33.24-.68,1.78-2.02,2.03-3.77,1.97-1.2-.04-2.43.57-3.73.92.25.43.29.59.35.59,2.02.11,3.39,1.02,4.24,2.93.37.84,1.28,1.44,1.83,2.42-4.33-1.3-8.66-2.6-12.99-3.91-2.13-1.01-4.25-2.02-6.41-3.04ZM179.63,462.25c8.36,0,16.5,0,24.84,0,.18-9.85.36-19.54.54-29.24-1.31,1.1-2.54,2.1-3.73,3.16-.72.64-1.51,1.29-2.02,2.09-.85,1.33-1.56,2.68-3.6,2.24.41.28.83.56,1.64,1.11-.71-.16-1.01-.15-1.21-.28-1.29-.81-2.33-.36-3.41.48-.74.57-1.63.93-2.25,1.27,1.08.89,2.52,2.06,3.96,3.24-.09.16-.18.31-.27.47-4.19-1.05-8.41-2.03-12.35-4.14,1.76,3.96,4.87,6.48,9.07,8.24-1.74.43-2.84-.19-3.98-.96-1-.68-2.23-1.03-3.2-1.74-1.44-1.05-2.75-2.3-4.03-3.39,0,5.64,0,11.5,0,17.46ZM194.2,434.16c-1.05.53-1.95.49-2.93-.37-.92-.81-2.55-.25-3.42.78,1.16,1.01,2.34,1.96,3.43,3.02,1.36,1.32,2.19,1.4,3.65.34,2.63-1.91,5.01-3.99,6.37-7.06.26-.59,1-.96,1.46-1.48.34-.38.61-.83.91-1.25-.15-.15-.3-.3-.44-.44-1.74,1.26-3.38,2.68-5.24,3.74-1.75,1-3.73,1.61-5.63,2.41.46.08,1.15.2,1.83.32ZM227.76,423.45c1.46,1.15,2.6,1.1,3.84-.29,1.4-1.55,2.5-3.36,3.8-5.01.96-1.22,2.03-2.34,3.02-3.54.43-.51.78-1.09,1.16-1.64-.18-.19-.36-.38-.54-.57-2.14,1.49-4.25,3.02-6.42,4.47-1.25.84-2.56,1.61-3.9,2.28-1.1.56-2.29.93-3.63,1.47.84.91,1.64,2.02,2.67,2.83ZM220.3,390.19c.2.02.32.06.4.02,1.43-.67,2.91-1.26,4.24-2.09.61-.38,1.1-1.19,1.34-1.9.53-1.59,1.5-2.64,2.92-3.53,1.06-.67,1.81-1.83,2.7-2.77-.14-.19-.29-.38-.43-.57-.6.25-1.52.34-1.75.78-1.17,2.25-3.15,2.26-5.23,2.17-.67-.03-1.35.06-2.41.12.77.8,1.24,1.3,1.71,1.79-.03.16-.07.32-.1.47-1.06-.17-2.11-.34-3.17-.5l-.04-.53c-.77.72-1.54,1.43-2.26,2.11,1.3,1.11,2.48,2.11,3.93,3.35-.91-.11-1.44-.18-2.28-.28.2.6.32.99.44,1.35ZM226.49,425.13c-.55-.22-1.28-.25-1.66-.63-1.4-1.39-2.94-1.45-4.79-1.17-.72.11-1.61-.91-2.5-1.46-1.24.87-1.21,1.46,0,2.58.85.77,1.63,1.71,2.16,2.71.92,1.76,3.07,2.54,4.73,1.47,1.21-.79,2.37-1.65,3.86-2.69-.86-.39-1.32-.62-1.8-.81ZM187.5,416.86c1.25.82,2.5,1.65,3.91,2.58-.26-2.22,1.32-2.46,2.98-2.76.45-.08,1.03-.63,1.15-1.07.37-1.45,1.14-2.52,2.39-3.34.42-.28.63-.88.94-1.33-.14-.14-.28-.28-.42-.42-4.12,1.37-7.53,3.98-10.95,6.34ZM227.79,396.52c.22-.52.39-.8.45-1.1.38-2.05,1.49-3.51,3.25-4.63.62-.4.94-1.29,1.21-2.16-3.34.1-5.53,2.65-8.84,3.51,1.45,1.61,2.62,2.92,3.93,4.37ZM220.02,400.64c.42.58,1.17.93,2.05,1.6.25-1.31.33-2.23.63-3.08.27-.74.79-1.4,1.27-2.22-1.08-1.13-4.9-1.31-6.36-.2.85,1.41,1.54,2.72,2.41,3.9ZM184.72,438.21c1.66,1.12,2.01,3.65,4.38,4.02,1.3.2,2.77-.63,2.93-1.91.03-.26-.19-.78-.34-.79-1.63-.2-2.68-2.12-4.64-1.48-.46.15-1.16-.46-2.04-.85-.1.32-.39.95-.3,1.02ZM191.14,400.14c.78-.55,1.93-.55,2.88-.9.48-.18,1.25-.6,1.25-.9-.03-1.97.28-3.73,2.37-4.76-.17-.13-.35-.27-.52-.4-.56.55-1.09,1.15-1.69,1.65-1.6,1.33-3.12,2.83-4.9,3.86-1.08.63-2.59.52-4,.76,1.57,2.01,2.62,2.08,4.62.69ZM254.59,411.84c-.82-.2-1.52-1.1-2.14-1.8-.96-1.09-1.8-2.29-2.87-3.31.57,3.08,4.41,7.31,8.63,9.79-.28-2.41-1.15-4.08-3.62-4.68ZM196.92,404.14c-.82,1.74-2.2,2.12-3.96,2.07-.86-.02-1.72.33-2.95.59.9.82,1.43,1.44,2.08,1.88.93.63,1.86.89,2.49-.5.23-.5.67-1.04,1.15-1.27,1.69-.8,2.24-2.36,2.94-3.83-.14-.13-.29-.26-.43-.38-.45.48-1.06.88-1.33,1.44ZM219.71,341.78c.08.13.15.27.23.4,4.28-.99,7.86-3.17,10.65-6.74-3.63,2.11-7.26,4.22-10.89,6.34ZM213.47,402.99c.69.57,1.28,1.31,1.75,2.08,1.29,2.11,1.43,2.15,3.45.09-.8-.42-1.53-.76-2.22-1.17-.47-.29-.95-.63-1.31-1.05-.79-.92-1.52-1.89-2.46-3.09-.54,1.62-.1,2.4.79,3.14ZM186.79,423.74c.16.03.32.06.48.09.98-.77,1.96-1.53,2.95-2.3,0-.19,0-.39,0-.58-.97-.22-1.97-.35-2.89-.69-.92-.33-1.76-.88-2.69-1.36-.84,2.35,2.57,2.61,2.16,4.83ZM217.21,378.99c.37-.45.76-.94.95-1.16-1.18-1.24-2.21-2.41-3.35-3.48-.76-.72-1.54-1.66-3.24-.6,1.94,1.81,3.73,3.48,5.64,5.25ZM225.75,372.59c.71-.16,1.38-.55,2.06-.84-.6-.26-1.26-.44-1.79-.8-2.25-1.54-3.46.94-5.23,1.28,1.61.91,3.29.71,4.95.35ZM220.58,410.29c1.45.88,5.56.61,7.28-.54-2.67-1.95-5.03-1.14-7.28.54ZM186.33,429.15c.97,1.27,2.25.95,3.32-.86-1.76-1.52-3.68-2-5.11-1.34.59.72,1.21,1.45,1.79,2.2ZM185.8,401.56c-.64-.11-1.21-.2-2.09-.35,1.2,1.31,2.19,2.39,3.31,3.61.55-.72,1.09-1.43,1.83-2.4-1.12-.74-2.14-1.42-3.16-2.09-.09.15-.19.3-.28.44.12.23.23.46.4.79ZM191.31,425.66c1.08,1.08,2.5,1.1,3.52.43.58-.39.49-1.79.7-2.74-.19-.1-.37-.2-.56-.3-1.21.87-2.43,1.73-3.66,2.61ZM219.82,413.53c-1.86.51-2.3-.7-2.89-1.72-.54-.92-1.09-1.86-2.72-.77,1.4,1.44,2.74,2.8,4.25,4.35.62-.85.9-1.22,1.37-1.86ZM234.16,321.6l-.46-.35c-1.52,2.05-3.03,4.11-4.55,6.16,3.4-.63,3.57-3.7,5.01-5.81ZM208.71,340.57c.46,3.09,1.96,4.12,4.24,2.84-1.43-.96-2.81-1.88-4.24-2.84ZM216.79,430.82c.38-3.26-2.38-3.13-3.89-4.25l-.41.43c1.39,1.24,2.78,2.48,4.3,3.82ZM196.72,373.01c-2.34,1.36-4.68,2.71-7.02,4.07.07.13.15.25.22.38,2.68-.79,5.18-1.87,6.79-4.44ZM231.28,364.16c-3.11.58-3.44,3.45-5.54,4.99.83.29,1.37.48,2.37.83-.98-3.22,1.69-3.89,3.17-5.82ZM210.47,338.65c-.09.07-.18.15-.28.22,1.15,1.25,2.26,2.53,3.5,3.69.2.19.95-.2,1.64-.38-1.88-1.37-3.37-2.45-4.86-3.53ZM186.13,432.67c.21.06.59-.42.62-.44-1.41-1.27-2.71-2.43-4-3.59-.09.1-.19.19-.28.29.98,1.47,1.73,3.17,3.66,3.74ZM232.65,400.88c-.15-.17-.3-.33-.45-.5-1.71,1.12-3.21,2.49-4.34,4.27.12.12.23.24.35.36,1.48-1.38,2.96-2.75,4.44-4.13ZM211.32,377.29c-.16.11-.32.23-.48.34.99,1.72,1.93,3.49,3.55,4.78.09.07.48-.24.61-.31-1.32-1.73-2.49-3.27-3.67-4.81ZM181.39,404.33c.36,2.18,1.05,2.88,2.79,3.32.11-.12.23-.23.34-.35-1.04-.99-2.09-1.98-3.13-2.97ZM199.7,363.05c-.13-.1-.25-.2-.38-.3-1,1.35-2,2.69-3,4.04,2.32-.32,2.43-2.34,3.38-3.74ZM181.04,438.59c-.12.09-.24.18-.36.27,1.23,1.35,2.46,2.71,3.69,4.06.21-.2.43-.4.64-.59-1.32-1.25-2.65-2.49-3.97-3.74ZM238.76,407.71c-.09-.1-.18-.21-.27-.31-1.42.77-3.1,1.22-3.24,3.4,1.17-1.03,2.34-2.06,3.52-3.1ZM252.19,320.37c-.53,2.38,1.57,2.3,2.41,3.39.2-.2.39-.4.59-.6-1-.93-2-1.86-3-2.79ZM198.87,419.33c-.12-.13-.25-.27-.37-.4-1.06.98-2.12,1.97-3.18,2.95l.42.43c1.04-.99,2.09-1.98,3.13-2.97ZM171.27,406c-.1-.18-.2-.35-.29-.53-1.25.71-2.5,1.42-3.75,2.13.09.16.18.32.27.48,1.26-.69,2.51-1.39,3.77-2.08Z"
    style="fill: #fff;" />
  <g>
    <path
      d="M242.31,603.45c0-36.26.04-72.52-.08-108.78-.01-3.09.81-3.67,3.75-3.59,17.9.49,35.81.85,53.71,1.01,3.25.03,4.09,1.15,4.48,4.14,4.29,32.8,8.64,65.59,13.13,98.36,2.87,20.99,6.08,41.93,9.98,62.76.24,1.29-.19,3.11,2.15,3.18,2.59.08,2.15-1.93,2.35-3.32,5.15-34.28,9.55-68.67,14.02-103.04,2.51-19.32,5.11-38.62,7.56-57.95.31-2.41,1.09-3.09,3.57-3.04,18.24.36,36.49.61,54.74.7,2.93.01,3.46.96,3.46,3.66,0,55.86-.13,111.73.84,167.59.2,11.44.4,22.89.75,34.32.07,2.29-.46,3.25-2.88,3.3-10.87.24-21.74.7-32.61.86-2.4.03-5.61,1.8-6.99-.21-1.16-1.69-.33-4.8-.27-7.28.98-40.78,1.98-81.56,2.97-122.34.05-2.04.12-4.08.13-6.12,0-.95.35-2.12-1.34-2.14-1.31-.02-1.8.6-1.98,1.78-.45,2.91-.94,5.81-1.44,8.72-6.37,37.18-12.27,74.45-21,111.18-1.31,5.51-2.88,10.95-4.19,16.46-.45,1.89-1.41,2.49-3.28,2.61-8.8.56-17.6,1.2-26.39,1.96-2.25.19-3.44-.31-4.24-2.61-5.81-16.61-9.85-33.7-13.61-50.85-6.15-28-10.99-56.25-15.78-84.51-.15-.89-.36-1.78-.48-2.67-.17-1.29-.28-2.55-2.12-2.36-1.85.19-1.28,1.6-1.25,2.59.17,6.8.4,13.59.63,20.39,1.16,33.97,2.24,67.95,4.54,101.87.42,6.22.96,12.42,1.49,18.63.14,1.61.23,2.64-2.04,2.87-12.36,1.29-24.71,2.66-37.02,4.33-2.96.4-3.62-.15-3.67-3.02-.38-23.23-.99-46.45-1.34-69.67-.2-13.25-.04-26.52-.04-39.77-.07,0-.13,0-.2,0Z"
      style="fill: #fff;" />
    <path
      d="M27.51,761.09c0-32.41,0-64.81,0-97.22,0-1.81-.1-3.62-.16-5.42.04-1.36.1-2.72.1-4.07.02-55.3.06-110.6-.05-165.9,0-3.28,1-3.83,3.96-3.71,13.02.53,26.05.94,39.08,1.15,3.07.05,3.62,1.06,3.61,3.94-.12,34.22-.03,68.44-.16,102.66-.01,3.22.96,3.91,3.98,3.85,10.99-.22,21.99-.26,32.98-.15,2.79.03,3.6-.68,3.6-3.56-.09-33.77,0-67.54-.1-101.31,0-3.13.76-3.91,3.89-3.77,13.13.58,26.28.96,39.42,1.2,2.86.05,3.45.91,3.44,3.66-.32,76.6-.37,153.2,1.17,229.8.15,7.31.16,7.35-7.02,8.75-12.21,2.37-24.49,4.42-36.52,7.65-2.91.78-3.37-.05-3.39-2.75-.23-32.41-.62-64.81-.8-97.22-.02-3.2-.62-4.24-4.05-4.03-11.09.67-22.19,1.04-33.29,1.34-2.49.07-3.25.73-3.23,3.3.25,35.13.34,70.26.62,105.38.02,2.99-.65,4.28-3.73,5.05-14.5,3.63-28.92,7.56-43.37,11.38Z"
      style="fill: #fff;" />
    <path
      d="M953.21,583.63c-6.8,0-13.61-.09-20.4.05-2.29.05-2.86-.75-2.87-2.92-.05-10.65-.25-21.3-.39-31.96-.04-3.41-.37-6.78-1.35-10.07-2.94-9.87-9.68-15.17-19.55-15.33-10.53-.17-18.52,5.22-21.71,14.69-.43,1.28-.88,2.61-1.01,3.94-1.06,11.2-1.01,22.42.58,33.55,1.04,7.25,5.79,12.43,11.22,16.9,8.05,6.62,17.39,11.02,26.88,15.11,7.8,3.36,15.66,6.52,23.11,10.71,14.3,8.05,22.75,20.41,27.36,35.74,3.98,13.23,5.13,26.9,5.87,40.61.64,11.78.88,23.55-1.21,35.25-1.11,6.18-2.91,12.15-5.75,17.72-6.91,13.55-17.7,21.22-33.31,20.97-16.47-.26-31.92-4.89-46.86-11.46-10.75-4.73-20.57-10.84-29.41-18.68-15.36-13.63-23.42-30.52-23.9-51.04-.22-9.4-.48-18.8-.86-28.2-.09-2.23.51-2.97,2.81-2.79,13.9,1.04,27.8,2.02,41.71,2.89,2.48.15,2.58,1.5,2.63,3.35.3,10.99.59,21.98,1.02,32.96.4,10.27,4.53,19.02,13.28,24.33,7.08,4.3,15.3,5.63,23.52,2.35,3.08-1.23,5.22-3.51,6.56-6.56,1.61-3.68,2.53-7.54,2.54-11.55,0-9.74.05-19.49-.93-29.21-1-9.89-5.16-17.84-13.37-23.77-10.09-7.29-21.03-12.92-32.46-17.69-9.14-3.81-17.8-8.44-25.69-14.48-7.19-5.5-12.83-12.17-15.75-20.83-7.37-21.86-8.77-44.26-4.03-66.71,4.25-20.14,16.6-34.14,35.89-41.7,16.82-6.59,34.23-7.86,51.81-4.24,25.56,5.26,41.52,22.68,45.75,48.91,1.14,7.07,1.39,14.2,1.43,21.34.05,8.16.12,16.32.36,24.47.07,2.43-.41,3.4-3.11,3.32-6.8-.2-13.6-.07-20.4-.07,0,.04,0,.07,0,.11Z"
      style="fill: #fff;" />
    <path
      d="M178.68,607.64c0-38.29.02-76.58-.05-114.87,0-2.54.42-3.56,3.29-3.45,13.36.52,26.73.91,40.1,1.09,2.97.04,2.87,1.46,2.87,3.55-.05,27.98-.12,55.96-.06,83.95.1,45.99.16,91.99,1.81,137.96.09,2.52-.7,3.27-3.02,3.6-13.63,1.95-27.3,3.72-40.81,6.41-2.45.49-2.58-.46-2.62-2.35-.28-15.63-.81-31.26-.92-46.89-.16-23-.04-45.99-.04-68.99-.18,0-.35,0-.53,0Z"
      style="fill: #fff;" />
    <path
      d="M480.16,601.88c14.38,0,28.77.05,43.15-.05,2.4-.02,3.38.45,3.34,3.14-.13,8.83-.05,17.66.14,26.49.05,2.43-.42,3.35-3.12,3.28-28.76-.76-57.53-.17-86.3-.07-2.99,0-3.84-.73-3.78-3.74.16-8.71.08-17.44-.14-26.15-.06-2.58.7-3.24,3.22-3.22,14.5.11,28.99.05,43.49.05,0,.09,0,.18,0,.27Z"
      style="fill: #fff;" />
    <g>
      <path
        d="M835.14,738.18c-7.25-38.98-13.65-78.1-19.56-117.3-6.36-42.11-12.44-84.26-18.52-126.41-.39-2.71-1.35-3.18-3.83-3.14-10.21.13-20.42.11-30.63.05-1.19,0-2.84.5-2.6,1.67-.15-.88-29.94-.05-33.73-.08-2.11-.02-2.87.55-3.16,2.76-4.19,31.21-8.44,62.4-12.79,93.59-5.79,41.5-11.13,83.08-20.42,124-.46,2.01.1,2.65,1.95,2.89,13.77,1.81,27.54,3.59,41.28,5.54,2.62.37,3.25-.62,3.69-2.93,2.8-14.69,5.14-29.46,7.27-44.26.43-2.97,1.6-3.4,4.14-3.13,8.33.88,16.67,1.86,25.03,2.32,3.99.22,5.23,1.8,5.77,5.57,2.37,16.48,5.47,32.84,8.57,49.2.28,1.5.4,2.79,2.43,3.06,14.46,1.93,28.52,5.85,42.77,8.83,2.51.53,2.81.31,2.34-2.24ZM769.41,638.85c-2.81-.3-5.65-.29-8.48-.41,0-.17,0-.33,0-.5-2.94,0-5.88-.09-8.82.03-2.32.1-2.79-.7-2.48-3,2.05-15.02,3.95-30.06,5.87-45.1.93-7.3,1.77-14.6,2.73-21.89.16-1.21-.2-2.95,1.93-2.95s1.75,1.73,1.93,2.95c3.32,22.61,6.59,45.24,9.96,67.84.36,2.38-.07,3.31-2.65,3.03Z"
        style="fill: #fff;" />
      <path
        d="M680.38,674.41c-1.2-22.08-16.94-44.66-38.25-49.19-1.02-.22-2.12-.32-2.05-1.74.07-1.38,1.22-1.46,2.2-1.66,15.58-3.2,25.41-13.03,31.26-27.3,7.68-18.76,7.67-38.04,2.96-57.39-4.99-20.47-18.5-32.93-38.33-38.96-9.07-2.76-18.41-3.69-27.87-3.67-20.85.05-41.7.13-62.55.07-2.48,0-3.25.51-3.23,3.14.35,44.52.56,89.04.86,133.56.16,22.88.47,45.77.62,68.65.02,2.55.73,3.33,3.38,3.56,6.89.61,13.81.25,20.69,1.06,6.39.75,12.86.92,19.28,1.46,2.25.19,2.93-.56,2.85-2.81-.18-5.32-.1-10.65-.14-15.97-.1-15.07-.17-30.13-.36-45.2-.03-2.18.51-2.94,2.79-2.86,6,.23,12.02.05,18.01.31,13.75.58,20.79,7.66,21.17,21.31.29,10.3.34,20.62.58,30.92.13,5.45.8,10.83,2.71,16.01.56,1.53,1.29,2.25,3.11,2.44,9.21.95,18.38,2.18,27.59,3.2,5.49.61,11,1.01,17.02,1.55-2.86-6.55-3.58-12.95-3.76-19.43-.2-7.02-.14-14.05-.52-21.06ZM632.64,587.69c-1.63,11.83-8.56,18.14-20.5,18.48-5.99.17-12-.11-18,.02-2.34.05-2.83-.83-2.8-2.95.08-5.88-.06-11.77-.08-17.65-.02-5.77,0-11.54,0-17.31h-.32c0-11.43.09-22.86-.06-34.29-.03-2.6.73-3.29,3.24-3.17,6.67.29,13.36-.34,20.01.45,9.23,1.09,15.06,6.14,17.48,15.13.77,2.85,1.21,5.76,1.24,8.72.09,8.94.15,17.88.17,26.82,0,1.92-.12,3.85-.38,5.75Z"
        style="fill: #fff;" />
    </g>
  </g>
  <g>
    <path
      d="M230.22,755.98c-1.01-9.14-1.52-13.71-2.53-22.85,3.65-.4,5.47-.6,9.12-.99,1.47-.16,2.74,0,3.8.5,1.06.49,1.89,1.18,2.49,2.06.6.88.95,1.85,1.06,2.88.13,1.26-.07,2.37-.6,3.34-.53.96-1.31,1.67-2.33,2.11-.05-.31-.07-.46-.11-.77,1.51.2,2.72.79,3.62,1.75.9.96,1.42,2.14,1.56,3.52.14,1.34-.01,2.54-.45,3.59-.43,1.05-1.14,1.91-2.1,2.57-.97.66-2.18,1.07-3.64,1.23-3.95.42-5.93.63-9.88,1.07ZM233.26,752.45c2.4-.26,3.6-.39,6-.65.76-.08,1.42-.3,1.99-.64.57-.35,1-.81,1.29-1.38.29-.57.4-1.23.32-1.97-.07-.69-.29-1.29-.65-1.82-.36-.52-.85-.92-1.45-1.18-.61-.26-1.29-.35-2.06-.27-2.49.27-3.74.4-6.23.67.32,2.9.47,4.34.79,7.24ZM232.13,742.08c2.25-.25,3.38-.37,5.63-.61.62-.07,1.17-.25,1.64-.55.47-.3.83-.7,1.07-1.21.24-.5.33-1.09.26-1.75-.09-.89-.47-1.59-1.13-2.1-.66-.51-1.5-.71-2.5-.6-2.26.24-3.39.36-5.65.61.27,2.48.41,3.72.68,6.21Z"
      style="fill: #fff;" />
    <path
      d="M250.15,753.86c-.93-9.15-1.39-13.73-2.31-22.88,3.75-.38,5.63-.57,9.38-.93.23-.02.51-.04.84-.06.33-.02.66-.01.96.01,1.31.08,2.43.41,3.36,1,.93.59,1.65,1.37,2.18,2.35.52.98.84,2.08.96,3.31.17,1.82-.16,3.44-.97,4.85-.82,1.41-2.15,2.37-4,2.87-.54.12-.81.17-1.35.29-2.61.25-3.92.38-6.53.64.33,3.29.49,4.93.82,8.21-1.33.13-2,.2-3.33.33ZM252.35,742.16c2.34-.23,3.51-.35,5.85-.58.21-.02.45-.05.71-.1.26-.05.5-.11.73-.18.67-.22,1.19-.57,1.57-1.04.38-.47.63-.99.76-1.57.13-.58.17-1.15.11-1.71-.05-.56-.2-1.11-.43-1.65-.23-.54-.58-1-1.04-1.39-.46-.39-1.04-.63-1.74-.72-.24-.04-.5-.06-.76-.05-.27,0-.5.02-.72.04-2.35.23-3.53.34-5.88.58.33,3.36.5,5.03.83,8.39ZM263.58,752.54c-2.16-3.55-3.25-5.33-5.43-8.88,1.32-.47,1.98-.71,3.3-1.18,2.39,3.88,3.58,5.82,5.95,9.7-1.52.14-2.29.21-3.81.36Z"
      style="fill: #fff;" />
    <path
      d="M271.22,751.83c-.83-9.16-1.25-13.74-2.08-22.9,1.35-.12,2.02-.18,3.37-.3.82,9.16,1.22,13.74,2.04,22.9-1.33.12-2,.18-3.33.3Z"
      style="fill: #fff;" />
    <path
      d="M279.34,751.11c-.8-9.16-1.2-13.74-1.99-22.91,1.37-.12,2.05-.18,3.42-.3,5.16,6.42,7.71,9.64,12.8,16.09-.54-6.81-.82-10.22-1.36-17.03,1.37-.11,2.05-.16,3.42-.27.72,9.17,1.07,13.75,1.79,22.92-1.35.11-2.03.16-3.38.27-5.07-6.46-7.63-9.68-12.77-16.1.58,6.82.87,10.22,1.45,17.04-1.35.12-2.03.17-3.38.29Z"
      style="fill: #fff;" />
    <path
      d="M311.33,749.05c-1.54.11-2.98-.05-4.32-.49-1.34-.44-2.53-1.14-3.56-2.1-1.04-.96-1.88-2.15-2.52-3.59-.65-1.43-1.04-3.09-1.19-4.97-.19-2.47.1-4.63.88-6.48.78-1.85,1.94-3.31,3.5-4.39,1.55-1.08,3.39-1.7,5.51-1.85,2.73-.2,4.96.28,6.68,1.42,1.71,1.14,2.94,2.8,3.68,4.97-1.35.33-2.02.5-3.37.84-.57-1.34-1.4-2.38-2.51-3.12-1.11-.74-2.46-1.07-4.05-.96-1.64.11-2.99.57-4.02,1.38-1.04.81-1.78,1.9-2.23,3.26-.45,1.36-.61,2.92-.49,4.67.12,1.75.5,3.26,1.15,4.53.64,1.27,1.54,2.23,2.68,2.88,1.15.65,2.54.92,4.17.82,1.31-.08,2.42-.39,3.33-.96.91-.57,1.61-1.36,2.09-2.38.49-1.01.76-2.24.83-3.67-1.8.12-2.69.19-4.49.31-.08-1.07-.11-1.61-.19-2.68,3.22-.23,4.84-.34,8.06-.55.03.19.07.44.1.75.03.31.05.51.06.6.14,2.12-.14,4.05-.85,5.77-.71,1.72-1.81,3.11-3.32,4.17-1.5,1.06-3.36,1.67-5.58,1.83Z"
      style="fill: #fff;" />
    <path
      d="M325.3,747.61c-.6-9.18-.89-13.77-1.49-22.95,1.35-.09,2.02-.13,3.37-.22.58,9.18.87,13.77,1.45,22.95-1.34.08-2,.13-3.34.21Z"
      style="fill: #fff;" />
    <path
      d="M333.42,747.1c-.56-9.18-.84-13.77-1.4-22.95,1.37-.08,2.05-.12,3.42-.21,4.98,6.55,7.46,9.83,12.37,16.41-.37-6.82-.55-10.24-.92-17.06,1.37-.07,2.05-.11,3.42-.18.48,9.19.72,13.78,1.2,22.96-1.35.07-2.03.11-3.39.18-4.9-6.59-7.37-9.87-12.34-16.43.4,6.83.61,10.24,1.01,17.07-1.35.08-2.03.12-3.39.2Z"
      style="fill: #fff;" />
    <path
      d="M365.43,745.87c-1.54.07-2.98-.13-4.3-.61-1.33-.47-2.49-1.2-3.5-2.19-1.01-.98-1.82-2.2-2.43-3.65-.61-1.45-.96-3.12-1.06-5-.13-2.48.22-4.63,1.05-6.46.82-1.83,2.03-3.26,3.6-4.3,1.58-1.04,3.43-1.61,5.55-1.71,2.74-.12,4.95.41,6.63,1.59,1.68,1.19,2.86,2.87,3.54,5.06-1.36.3-2.03.45-3.39.75-.53-1.35-1.34-2.41-2.43-3.19-1.09-.77-2.43-1.13-4.02-1.07-1.65.06-3,.49-4.05,1.28-1.06.78-1.83,1.85-2.31,3.2-.48,1.35-.69,2.9-.61,4.66.08,1.76.42,3.28,1.03,4.56.61,1.29,1.48,2.27,2.61,2.95,1.13.68,2.52.98,4.14.93,1.31-.04,2.43-.33,3.35-.88.92-.55,1.64-1.32,2.15-2.32.51-1,.82-2.22.92-3.65-1.8.08-2.7.12-4.49.2-.05-1.07-.07-1.61-.12-2.68,3.23-.14,4.84-.21,8.07-.34.03.19.06.44.08.76.02.31.04.51.04.6.09,2.13-.25,4.04-1,5.75-.75,1.7-1.89,3.06-3.42,4.08-1.53,1.02-3.4,1.58-5.62,1.68Z"
      style="fill: #fff;" />
    <path
      d="M391.03,744.38c-.13-3.8-.19-5.7-.32-9.5-3.31-5.29-4.97-7.93-8.31-13.21,1.58-.06,2.36-.09,3.94-.14,2.39,3.78,3.58,5.68,5.95,9.47,2.12-3.94,3.19-5.9,5.33-9.83,1.58-.05,2.36-.07,3.94-.11-3,5.48-4.49,8.23-7.44,13.72.12,3.8.18,5.7.3,9.5-1.36.04-2.03.06-3.39.11Z"
      style="fill: #fff;" />
    <path
      d="M412.78,744.25c-2.3.05-4.27-.4-5.92-1.37-1.65-.96-2.92-2.33-3.83-4.11-.91-1.77-1.4-3.85-1.46-6.22-.07-2.37.31-4.47,1.12-6.29.82-1.82,2.03-3.26,3.64-4.31,1.61-1.05,3.58-1.6,5.91-1.65,2.32-.05,4.31.41,5.97,1.38,1.66.97,2.94,2.35,3.83,4.13.89,1.78,1.36,3.86,1.4,6.24.04,2.37-.35,4.47-1.17,6.28-.82,1.82-2.04,3.24-3.64,4.28-1.61,1.04-3.55,1.58-5.84,1.64ZM412.7,741.07c1.63-.02,2.98-.41,4.05-1.17,1.07-.76,1.86-1.81,2.38-3.15.52-1.34.76-2.88.73-4.64-.03-1.76-.34-3.29-.91-4.59-.57-1.3-1.41-2.31-2.52-3.02-1.11-.71-2.49-1.05-4.13-1.03-1.64.02-3.01.41-4.08,1.17-1.07.76-1.87,1.81-2.38,3.16-.51,1.35-.75,2.9-.72,4.65.04,1.76.34,3.28.92,4.58.58,1.3,1.42,2.3,2.54,3.01,1.11.71,2.49,1.04,4.12,1.02Z"
      style="fill: #fff;" />
    <path
      d="M436,743.84c-1.8.02-3.39-.33-4.78-1.05-1.39-.72-2.49-1.74-3.29-3.07-.8-1.32-1.22-2.89-1.24-4.7-.09-5.81-.14-8.71-.23-14.51,1.37-.03,2.05-.04,3.42-.07.08,5.74.12,8.61.21,14.35.01.98.19,1.84.53,2.58.34.74.79,1.36,1.36,1.85.56.49,1.19.86,1.88,1.11.69.25,1.39.37,2.11.36.73,0,1.43-.15,2.12-.41.68-.27,1.3-.66,1.85-1.16.55-.51.98-1.13,1.3-1.88s.47-1.61.47-2.58c-.05-5.74-.08-8.61-.13-14.35,1.37-.01,2.05-.02,3.42-.03.04,5.81.06,8.72.1,14.53.01,1.8-.37,3.37-1.13,4.72-.77,1.35-1.84,2.4-3.21,3.15-1.37.75-2.96,1.14-4.76,1.16Z"
      style="fill: #fff;" />
    <path
      d="M465.63,743.7c-2.3,0-4.26-.51-5.88-1.52-1.62-1-2.86-2.41-3.73-4.2-.86-1.8-1.3-3.88-1.31-6.26,0-2.37.42-4.46,1.28-6.26.86-1.8,2.11-3.21,3.75-4.21,1.64-1.01,3.62-1.51,5.94-1.5,2.68,0,4.9.69,6.65,2.04,1.75,1.35,2.96,3.16,3.63,5.44-1.37.35-2.05.53-3.42.89-.44-1.61-1.24-2.88-2.39-3.8-1.15-.92-2.65-1.38-4.48-1.39-1.65,0-3.02.36-4.11,1.1-1.1.73-1.92,1.76-2.47,3.08-.55,1.32-.82,2.87-.82,4.62,0,1.75.26,3.29.81,4.61.55,1.32,1.37,2.35,2.47,3.08,1.09.74,2.46,1.1,4.09,1.11,1.82,0,3.31-.45,4.46-1.37,1.15-.92,1.96-2.17,2.42-3.76,1.36.37,2.04.56,3.39.93-.7,2.26-1.93,4.06-3.68,5.39-1.75,1.33-3.95,1.99-6.6,1.99Z"
      style="fill: #fff;" />
    <path
      d="M479.69,743.31c.08-9.2.13-13.8.21-22.99,1.35.01,2.03.02,3.38.03-.09,7.94-.13,11.91-.22,19.85,4.17.04,6.26.07,10.43.14-.02,1.26-.03,1.89-.05,3.15-5.5-.09-8.25-.12-13.75-.17Z"
      style="fill: #fff;" />
    <path
      d="M505.11,744.17c-2.3-.05-4.25-.59-5.85-1.63-1.6-1.04-2.82-2.46-3.64-4.27-.83-1.81-1.23-3.91-1.19-6.28.04-2.37.5-4.45,1.4-6.24.89-1.78,2.17-3.16,3.82-4.14,1.65-.98,3.64-1.44,5.97-1.39,2.31.05,4.28.6,5.9,1.64,1.62,1.05,2.83,2.48,3.64,4.3.81,1.82,1.18,3.92,1.12,6.29-.06,2.37-.55,4.45-1.45,6.22-.9,1.78-2.17,3.15-3.82,4.11-1.65.97-3.61,1.42-5.9,1.38ZM505.17,740.99c1.62.05,2.99-.27,4.09-.99,1.1-.71,1.94-1.73,2.52-3.04.58-1.31.89-2.85.93-4.6.04-1.76-.19-3.3-.71-4.63s-1.31-2.37-2.38-3.13c-1.07-.76-2.44-1.16-4.08-1.21-1.64-.05-3.02.27-4.13.99-1.1.71-1.94,1.73-2.51,3.05-.57,1.32-.88,2.86-.92,4.61-.04,1.76.2,3.3.72,4.62.52,1.32,1.32,2.36,2.4,3.12,1.08.76,2.44,1.15,4.06,1.2Z"
      style="fill: #fff;" />
    <path
      d="M527.48,744.77c-1.65-.05-3.13-.38-4.43-.99-1.31-.61-2.38-1.45-3.2-2.54-.83-1.08-1.35-2.36-1.57-3.82,1.4-.17,2.1-.26,3.51-.43.31,1.41,1.01,2.53,2.11,3.35,1.1.82,2.39,1.25,3.88,1.3.93.03,1.78-.09,2.57-.36.79-.27,1.43-.67,1.92-1.2.49-.53.75-1.18.78-1.95.01-.42-.04-.79-.18-1.11-.13-.32-.32-.61-.56-.86-.24-.25-.54-.47-.89-.65-.35-.19-.74-.35-1.16-.49-2.34-.77-3.52-1.16-5.86-1.93-.57-.19-1.16-.43-1.75-.72-.59-.29-1.13-.66-1.62-1.12-.48-.46-.87-1.02-1.17-1.68-.29-.66-.42-1.46-.4-2.4.04-1.41.44-2.6,1.21-3.57.76-.96,1.78-1.68,3.06-2.15,1.27-.47,2.7-.69,4.25-.63,1.56.06,2.97.39,4.19.97,1.22.57,2.23,1.37,3.02,2.4.79,1.02,1.31,2.25,1.57,3.67-1.45.19-2.17.29-3.62.48-.13-.87-.45-1.62-.95-2.26-.51-.64-1.13-1.14-1.88-1.5-.75-.36-1.58-.56-2.46-.6-.85-.04-1.65.05-2.37.31-.72.25-1.3.63-1.74,1.11-.44.49-.67,1.06-.69,1.7-.02.64.15,1.16.52,1.57.36.4.82.73,1.36.97.54.25,1.09.45,1.63.62,1.69.53,2.54.8,4.23,1.34.53.17,1.13.39,1.8.66.67.27,1.32.64,1.94,1.11.62.47,1.13,1.08,1.52,1.84.39.75.56,1.69.52,2.81-.04,1.16-.31,2.17-.81,3.03-.5.86-1.17,1.57-2,2.13-.84.56-1.79.97-2.86,1.24-1.07.26-2.2.37-3.38.34Z"
      style="fill: #fff;" />
    <path
      d="M539.7,744.72c.35-9.19.52-13.79.87-22.98,5.94.23,8.9.35,14.84.61-.06,1.26-.09,1.89-.14,3.14-4.58-.21-6.87-.3-11.45-.48-.1,2.58-.15,3.87-.26,6.45,3.8.15,5.69.23,9.49.4-.06,1.26-.08,1.89-.14,3.14-3.79-.17-5.68-.25-9.47-.4-.11,2.84-.17,4.26-.28,7.1,4.54.18,6.82.28,11.36.48-.06,1.26-.08,1.89-.14,3.14-5.87-.26-8.8-.39-14.68-.61Z"
      style="fill: #fff;" />
    <path
      d="M558.21,745.5c.43-9.19.65-13.78,1.08-22.97,3.75.18,5.63.27,9.38.46.23.01.5.03.84.07.33.03.65.08.95.15,1.28.27,2.33.76,3.16,1.48.83.72,1.43,1.6,1.8,2.64.37,1.04.52,2.18.46,3.42-.1,1.83-.66,3.38-1.67,4.65s-2.46,2.02-4.36,2.26c-.55.04-.82.05-1.37.09-2.61-.13-3.92-.2-6.53-.33-.16,3.3-.24,4.95-.4,8.25-1.33-.06-2-.1-3.33-.16ZM562.09,734.25c2.34.11,3.51.17,5.85.29.21.01.45.01.72,0,.26,0,.51-.03.75-.07.69-.12,1.26-.39,1.7-.8.44-.41.77-.89.98-1.44.21-.55.33-1.11.36-1.68.03-.56-.03-1.13-.18-1.7-.15-.57-.43-1.08-.82-1.53-.4-.45-.93-.78-1.61-.97-.23-.08-.48-.13-.74-.17-.26-.03-.5-.06-.71-.07-2.35-.12-3.53-.18-5.88-.29-.16,3.37-.25,5.05-.41,8.42ZM571.63,746.17c-1.61-3.83-2.42-5.75-4.05-9.58,1.37-.28,2.05-.41,3.42-.69,1.78,4.19,2.67,6.28,4.44,10.47-1.52-.08-2.29-.13-3.81-.21Z"
      style="fill: #fff;" />
    <path
      d="M591.05,747.3c.5-7.92.74-11.89,1.24-19.81-3.08-.19-4.62-.29-7.71-.47.07-1.26.11-1.88.19-3.14,7.52.44,11.28.68,18.8,1.19-.09,1.26-.13,1.88-.21,3.14-3.08-.21-4.62-.31-7.7-.51-.51,7.92-.77,11.88-1.27,19.81-1.33-.09-2-.13-3.33-.21Z"
      style="fill: #fff;" />
    <path
      d="M614.09,749.35c-2.29-.17-4.21-.81-5.75-1.93-1.54-1.12-2.68-2.6-3.41-4.46-.73-1.85-1.02-3.96-.86-6.33.16-2.37.74-4.42,1.72-6.16.99-1.73,2.33-3.05,4.03-3.94,1.7-.89,3.71-1.25,6.03-1.08,2.31.17,4.24.82,5.8,1.95,1.56,1.13,2.7,2.62,3.41,4.48.72,1.86.98,3.97.79,6.34-.19,2.37-.78,4.41-1.77,6.14-.99,1.73-2.34,3.03-4.03,3.91-1.7.88-3.68,1.23-5.96,1.07ZM614.32,746.18c1.62.14,3-.12,4.14-.77,1.13-.66,2.03-1.62,2.67-2.9.65-1.28,1.03-2.8,1.17-4.55.14-1.75-.02-3.3-.46-4.66-.44-1.35-1.18-2.44-2.21-3.25-1.03-.82-2.37-1.28-4.01-1.42-1.63-.14-3.03.11-4.17.77-1.14.65-2.03,1.63-2.67,2.92-.64,1.29-1.03,2.81-1.16,4.56-.13,1.75.02,3.3.47,4.65.45,1.35,1.2,2.43,2.23,3.24,1.04.81,2.37,1.28,3.99,1.41Z"
      style="fill: #fff;" />
    <path
      d="M634.49,750.47c.77-9.17,1.15-13.75,1.92-22.91,1.36.11,2.05.17,3.41.29,3.98,7.2,5.95,10.8,9.85,18.02.62-6.81.93-10.21,1.55-17.02,1.36.12,2.04.19,3.41.31-.85,9.16-1.27,13.74-2.12,22.9-1.35-.12-2.02-.19-3.37-.31-3.89-7.22-5.86-10.83-9.82-18.03-.58,6.82-.87,10.22-1.45,17.04-1.35-.12-2.02-.17-3.37-.28Z"
      style="fill: #fff;" />
    <path
      d="M655.37,752.33c3.83-8.88,5.77-13.31,9.67-22.18,1.93.19,2.9.28,4.84.48,2.09,9.45,3.12,14.18,5.15,23.64-1.38-.14-2.07-.21-3.45-.35-1.89-8.63-2.85-12.94-4.79-21.57.35.03.52.05.87.09-3.56,8.08-5.33,12.13-8.83,20.22-1.38-.13-2.07-.2-3.45-.33ZM659.73,747.53c.12-1.25.18-1.87.3-3.12,4.8.46,7.2.7,12,1.18-.13,1.25-.19,1.87-.32,3.11-4.79-.49-7.19-.72-11.98-1.18Z"
      style="fill: #fff;" />
    <path
      d="M681.68,754.96c.84-7.89,1.26-11.84,2.11-19.74-3.07-.33-4.61-.49-7.68-.8.13-1.25.19-1.88.32-3.13,7.5.77,11.24,1.17,18.73,2.01-.14,1.25-.21,1.88-.35,3.13-3.07-.34-4.6-.51-7.67-.85-.86,7.89-1.28,11.84-2.14,19.73-1.33-.14-1.99-.21-3.32-.36Z"
      style="fill: #fff;" />
    <path
      d="M704.19,757.97c-1.79-.21-3.32-.76-4.61-1.65-1.29-.89-2.24-2.05-2.86-3.46-.62-1.42-.83-3.02-.63-4.82.65-5.77.98-8.65,1.63-14.42,1.36.15,2.04.22,3.4.37-.66,5.7-.99,8.56-1.64,14.26-.11.97-.05,1.85.2,2.63.24.78.61,1.45,1.11,2.01.49.56,1.07,1.01,1.72,1.34.65.33,1.33.54,2.04.63.72.09,1.44.04,2.15-.14.71-.18,1.38-.48,1.99-.91.61-.43,1.12-1,1.53-1.7.41-.7.68-1.53.79-2.49.69-5.7,1.03-8.55,1.72-14.25,1.36.16,2.04.25,3.4.41-.71,5.77-1.06,8.65-1.76,14.42-.22,1.79-.8,3.3-1.73,4.53-.93,1.24-2.13,2.14-3.59,2.71-1.46.57-3.08.75-4.86.54Z"
      style="fill: #fff;" />
    <path
      d="M717.78,759.13c1.13-9.13,1.7-13.69,2.84-22.82,3.73.46,5.59.7,9.32,1.18.22.03.5.07.83.13.33.06.64.13.93.23,1.25.37,2.27.94,3.04,1.72.77.78,1.3,1.7,1.59,2.77.29,1.07.36,2.22.19,3.44-.24,1.82-.92,3.32-2.02,4.51s-2.61,1.83-4.52,1.91c-.55,0-.82-.01-1.37-.02-2.59-.33-3.89-.5-6.49-.83-.41,3.28-.62,4.91-1.03,8.19-1.32-.17-1.99-.25-3.31-.41ZM722.52,748.21c2.33.29,3.49.44,5.81.74.21.03.45.05.71.06.26.01.51,0,.76-.02.7-.07,1.28-.29,1.75-.67.47-.37.83-.83,1.09-1.36.25-.53.42-1.08.49-1.64.07-.56.06-1.13-.05-1.71-.11-.58-.34-1.11-.7-1.59-.36-.48-.87-.84-1.53-1.09-.23-.09-.47-.17-.73-.22-.26-.06-.49-.1-.71-.12-2.33-.3-3.5-.45-5.84-.74-.42,3.35-.63,5.02-1.06,8.36ZM731.12,760.83c-1.31-3.95-1.97-5.92-3.3-9.86,1.39-.17,2.08-.25,3.47-.42,1.46,4.31,2.18,6.47,3.62,10.78-1.51-.2-2.27-.3-3.78-.5Z"
      style="fill: #fff;" />
    <path
      d="M738.39,761.79c1.22-9.12,1.84-13.67,3.07-22.79,5.89.79,8.83,1.2,14.72,2.03-.18,1.25-.27,1.87-.44,3.12-4.54-.64-6.81-.96-11.35-1.58-.35,2.56-.52,3.84-.87,6.39,3.76.51,5.65.77,9.41,1.3-.18,1.25-.26,1.87-.44,3.11-3.76-.53-5.64-.79-9.4-1.3-.38,2.82-.58,4.22-.96,7.04,4.51.61,6.76.93,11.26,1.56-.18,1.25-.26,1.87-.44,3.11-5.82-.82-8.73-1.23-14.56-2.01Z"
      style="fill: #fff;" />
  </g>
  <path d="M27.35,798.15s90.18-36.78,183.93-45.89"
    style="fill: #fff; stroke: #fff; stroke-miterlimit: 10; stroke-width: 3px;" />
  <path d="M966.38,811.46s-96.3-35.76-204.36-51.38"
    style="fill: #fff; stroke: #fff; stroke-miterlimit: 10; stroke-width: 3px;" />
</svg>